<svg width="1440" height="1544" viewBox="0 0 1440 1544" fill="none" xmlns="http://www.w3.org/2000/svg">
<g opacity="0.7">
<g opacity="0.5" filter="url(#filter0_df_6439_43465)">
<rect x="558" y="954.612" width="301.334" height="403.423" rx="150.667" fill="#40F8FF"/>
</g>
<g opacity="0.5" filter="url(#filter1_f_6439_43465)">
<path d="M777.895 1162.41C780.359 1139.51 783.709 1116.55 787.582 1093.75L815.646 881.752H601.504L629.568 1093.75C633.441 1116.55 636.792 1139.51 639.307 1162.41C640.93 1177.18 630.142 1193.98 622.448 1208.48C615.59 1221.06 608.623 1233.53 601.504 1245.89C564.278 1311.06 592.291 1395.74 662.763 1422.4C664.96 1423.23 667.162 1423.96 669.464 1424.7C694.948 1433.19 722.516 1433.19 747.999 1424.7C750.253 1423.96 752.451 1423.23 754.649 1422.4C825.02 1395.74 852.975 1311.06 815.646 1245.89C808.37 1233.53 801.403 1221.06 794.702 1208.48C787.06 1193.71 776.22 1177.07 777.895 1162.41Z" fill="#40F8FF"/>
</g>
<g opacity="0.5" filter="url(#filter2_f_6439_43465)">
<path d="M777.895 1162.41C780.359 1139.51 783.709 1116.55 787.582 1093.75L815.646 881.752H601.504L629.568 1093.75C633.441 1116.55 636.792 1139.51 639.307 1162.41C640.93 1177.18 630.142 1193.98 622.448 1208.48C615.59 1221.06 608.623 1233.53 601.504 1245.89C564.278 1311.06 592.291 1395.74 662.763 1422.4C664.96 1423.23 667.162 1423.96 669.464 1424.7C694.948 1433.19 722.516 1433.19 747.999 1424.7C750.253 1423.96 752.451 1423.23 754.649 1422.4C825.02 1395.74 852.975 1311.06 815.646 1245.89C808.37 1233.53 801.403 1221.06 794.702 1208.48C787.06 1193.71 776.22 1177.07 777.895 1162.41Z" fill="#40F8FF"/>
</g>
<g opacity="0.5" filter="url(#filter3_f_6439_43465)">
<path d="M777.895 1162.41C780.359 1139.51 783.709 1116.55 787.582 1093.75L815.646 881.752H601.504L629.568 1093.75C633.441 1116.55 636.792 1139.51 639.307 1162.41C640.93 1177.18 630.142 1193.98 622.448 1208.48C615.59 1221.06 608.623 1233.53 601.504 1245.89C564.278 1311.06 592.291 1395.74 662.763 1422.4C664.96 1423.23 667.162 1423.96 669.464 1424.7C694.948 1433.19 722.516 1433.19 747.999 1424.7C750.253 1423.96 752.451 1423.23 754.649 1422.4C825.02 1395.74 852.975 1311.06 815.646 1245.89C808.37 1233.53 801.403 1221.06 794.702 1208.48C787.06 1193.71 776.22 1177.07 777.895 1162.41Z" fill="#40F8FF"/>
</g>
<g opacity="0.5" filter="url(#filter4_f_6439_43465)">
<path d="M777.895 1162.41C780.359 1139.51 783.709 1116.55 787.582 1093.75L815.646 881.752H601.504L629.568 1093.75C633.441 1116.55 636.792 1139.51 639.307 1162.41C640.93 1177.18 630.142 1193.98 622.448 1208.48C615.59 1221.06 608.623 1233.53 601.504 1245.89C564.278 1311.06 592.291 1395.74 662.763 1422.4C664.96 1423.23 667.162 1423.96 669.464 1424.7C694.948 1433.19 722.516 1433.19 747.999 1424.7C750.253 1423.96 752.451 1423.23 754.649 1422.4C825.02 1395.74 852.975 1311.06 815.646 1245.89C808.37 1233.53 801.403 1221.06 794.702 1208.48C787.06 1193.71 776.22 1177.07 777.895 1162.41Z" fill="#40F8FF"/>
<path d="M781.964 1162.86L781.965 1162.85C784.417 1140.05 787.755 1117.17 791.618 1094.43L791.63 1094.36L791.64 1094.29L819.704 882.289L820.317 877.659H815.646H601.504H596.833L597.446 882.289L625.51 1094.29L625.52 1094.36L625.532 1094.43C629.395 1117.17 632.733 1140.05 635.238 1162.86L635.238 1162.86C635.931 1169.16 633.989 1176.25 630.625 1183.9C628.211 1189.39 625.25 1194.79 622.307 1200.16C621.138 1202.29 619.972 1204.42 618.843 1206.54C612.002 1219.09 605.054 1231.52 597.956 1243.85L597.949 1243.86C559.542 1311.1 588.367 1398.63 661.314 1426.23M781.964 1162.86L662.763 1422.4M781.964 1162.86L781.962 1162.88C781.25 1169.11 783.182 1176.12 786.55 1183.76C788.832 1188.93 791.58 1194.01 794.343 1199.11C795.684 1201.59 797.029 1204.07 798.326 1206.58L781.964 1162.86ZM661.314 1426.23L662.763 1422.4M661.314 1426.23C661.313 1426.23 661.313 1426.23 661.312 1426.23L662.763 1422.4M661.314 1426.23C663.606 1427.1 665.881 1427.85 668.196 1428.59M662.763 1422.4C664.96 1423.23 667.162 1423.96 669.464 1424.7M668.196 1428.59C668.187 1428.58 668.178 1428.58 668.169 1428.58L669.464 1424.7M668.196 1428.59C668.205 1428.59 668.213 1428.59 668.222 1428.6L669.464 1424.7M668.196 1428.59L669.464 1424.7M749.28 1428.58C749.275 1428.58 749.27 1428.59 749.265 1428.59L747.999 1424.7L749.294 1428.58C749.289 1428.58 749.285 1428.58 749.28 1428.58ZM756.099 1426.23C756.099 1426.23 756.099 1426.23 756.099 1426.23L754.649 1422.4L756.099 1426.23Z" stroke="#40F8FF" stroke-width="8.18655"/>
</g>
<g opacity="0.5">
<g filter="url(#filter5_i_6439_43465)">
<path d="M777.895 1162.41C780.359 1139.51 783.709 1116.55 787.582 1093.75L815.646 881.752H601.504L629.568 1093.75C633.441 1116.55 636.792 1139.51 639.307 1162.41C640.93 1177.18 630.142 1193.98 622.448 1208.48C615.59 1221.06 608.623 1233.53 601.504 1245.89C564.278 1311.06 592.291 1395.74 662.763 1422.4C664.96 1423.23 667.162 1423.96 669.464 1424.7C694.948 1433.19 722.516 1433.19 747.999 1424.7C750.253 1423.96 752.451 1423.23 754.649 1422.4C825.02 1395.74 852.975 1311.06 815.646 1245.89C808.37 1233.53 801.403 1221.06 794.702 1208.48C787.06 1193.71 776.22 1177.07 777.895 1162.41Z" fill="#3ADFE6"/>
</g>
<path d="M815.179 882.161H601.971L629.971 1093.68C629.972 1093.68 629.972 1093.68 629.973 1093.69C633.846 1116.49 637.198 1139.45 639.714 1162.37C640.537 1169.86 638.211 1177.83 634.746 1185.71C632.248 1191.39 629.139 1197.06 626.161 1202.5C625.01 1204.59 623.879 1206.66 622.81 1208.67L622.808 1208.68C615.948 1221.26 608.98 1233.73 601.859 1246.1C564.752 1311.06 592.684 1395.45 662.907 1422.02L662.908 1422.02C665.095 1422.85 667.289 1423.57 669.588 1424.31L669.594 1424.31C694.993 1432.78 722.47 1432.78 747.87 1424.31L747.873 1424.31C750.126 1423.57 752.316 1422.85 754.504 1422.02L754.649 1422.4L754.504 1422.02C824.626 1395.45 852.501 1311.06 815.292 1246.1C808.014 1233.73 801.044 1221.25 794.34 1208.67L794.338 1208.67C793.121 1206.32 791.818 1203.91 790.496 1201.47C787.685 1196.27 784.785 1190.91 782.43 1185.57C778.966 1177.71 776.639 1169.81 777.489 1162.37M815.179 882.161L787.179 1093.68C787.178 1093.68 787.178 1093.68 787.178 1093.69C783.304 1116.49 779.952 1139.45 777.489 1162.37M815.179 882.161H815.592L787.582 1093.75M777.489 1162.37C777.489 1162.37 777.488 1162.37 777.488 1162.37L777.895 1162.41M777.489 1162.37C777.489 1162.37 777.489 1162.37 777.489 1162.36L777.895 1162.41M777.895 1162.41C780.359 1139.51 783.709 1116.55 787.582 1093.75M777.895 1162.41C776.489 1174.72 783.907 1188.43 790.846 1201.25C792.17 1203.7 793.477 1206.12 794.702 1208.48L787.582 1093.75" stroke="#33C6CC" stroke-width="0.818655"/>
</g>
</g>
<path d="M-321.679 767.501C-69.624 754.678 504.834 730.301 710.645 730.301C916.456 730.301 1490.79 754.678 1761.68 767.501" stroke="#40F8FF" stroke-width="0.818655"/>
<g filter="url(#filter6_df_6439_43465)">
<rect x="558.375" y="363.543" width="301.334" height="403.423" rx="150.667" fill="#40F8FF"/>
</g>
<g filter="url(#filter7_f_6439_43465)">
<path d="M782.156 533.962C784.752 558.123 788.284 582.339 792.366 606.391L821.946 830.014H596.237L625.817 606.391C629.899 582.339 633.431 558.123 636.082 533.962C637.793 518.385 626.422 500.662 618.313 485.365C611.084 472.099 603.741 458.947 596.237 445.901C557.001 377.161 586.527 287.837 660.804 259.713C663.121 258.835 665.442 258.066 667.868 257.292C694.728 248.328 723.785 248.328 750.645 257.292C753.021 258.066 755.337 258.835 757.653 259.713C831.825 287.837 861.291 377.161 821.946 445.901C814.277 458.947 806.933 472.099 799.87 485.365C791.815 500.941 780.39 518.495 782.156 533.962Z" fill="#40F8FF"/>
</g>
<g filter="url(#filter8_f_6439_43465)">
<path d="M782.156 533.962C784.752 558.123 788.284 582.339 792.366 606.391L821.946 830.014H596.237L625.817 606.391C629.899 582.339 633.431 558.123 636.082 533.962C637.793 518.385 626.422 500.662 618.313 485.365C611.084 472.099 603.741 458.947 596.237 445.901C557.001 377.161 586.527 287.837 660.804 259.713C663.121 258.835 665.442 258.066 667.868 257.292C694.728 248.328 723.785 248.328 750.645 257.292C753.021 258.066 755.337 258.835 757.653 259.713C831.825 287.837 861.291 377.161 821.946 445.901C814.277 458.947 806.933 472.099 799.87 485.365C791.815 500.941 780.39 518.495 782.156 533.962Z" fill="#40F8FF"/>
</g>
<g filter="url(#filter9_f_6439_43465)">
<path d="M782.156 533.962C784.752 558.123 788.284 582.339 792.366 606.391L821.946 830.014H596.237L625.817 606.391C629.899 582.339 633.431 558.123 636.082 533.962C637.793 518.385 626.422 500.662 618.313 485.365C611.084 472.099 603.741 458.947 596.237 445.901C557.001 377.161 586.527 287.837 660.804 259.713C663.121 258.835 665.442 258.066 667.868 257.292C694.728 248.328 723.785 248.328 750.645 257.292C753.021 258.066 755.337 258.835 757.653 259.713C831.825 287.837 861.291 377.161 821.946 445.901C814.277 458.947 806.933 472.099 799.87 485.365C791.815 500.941 780.39 518.495 782.156 533.962Z" fill="#40F8FF"/>
</g>
<g filter="url(#filter10_f_6439_43465)">
<path d="M782.156 533.962C784.752 558.123 788.284 582.339 792.366 606.391L821.946 830.014H596.237L625.817 606.391C629.899 582.339 633.431 558.123 636.082 533.962C637.793 518.385 626.422 500.662 618.313 485.365C611.084 472.099 603.741 458.947 596.237 445.901C557.001 377.161 586.527 287.837 660.804 259.713C663.121 258.835 665.442 258.066 667.868 257.292C694.728 248.328 723.785 248.328 750.645 257.292C753.021 258.066 755.337 258.835 757.653 259.713C831.825 287.837 861.291 377.161 821.946 445.901C814.277 458.947 806.933 472.099 799.87 485.365C791.815 500.941 780.39 518.495 782.156 533.962Z" fill="#40F8FF"/>
<path d="M786.225 533.525L786.224 533.511L786.223 533.497C785.465 526.862 787.521 519.425 791.076 511.354C793.485 505.886 796.389 500.517 799.304 495.129C800.716 492.518 802.132 489.901 803.494 487.267C810.529 474.057 817.84 460.963 825.474 447.976L825.486 447.955L825.498 447.935C866.025 377.129 835.757 284.951 759.105 255.886C756.695 254.972 754.304 254.179 751.926 253.405C724.238 244.167 694.287 244.166 666.599 253.401C664.158 254.179 661.764 254.971 659.353 255.886C582.6 284.949 552.267 377.123 592.682 447.93L592.689 447.942C600.171 460.951 607.496 474.068 614.707 487.303C615.894 489.54 617.121 491.781 618.353 494.029C621.456 499.695 624.584 505.405 627.132 511.205C630.684 519.289 632.75 526.808 632.013 533.515L632.013 533.515C629.372 557.581 625.853 581.716 621.781 605.706L621.769 605.78L621.759 605.854L592.179 829.478L591.567 834.108H596.237H821.946H826.616L826.003 829.478L796.424 605.854L796.414 605.78L796.401 605.706C792.329 581.715 788.811 557.584 786.225 533.525Z" stroke="#40F8FF" stroke-width="8.18655"/>
</g>
<g filter="url(#filter11_i_6439_43465)">
<path d="M782.156 533.962C784.752 558.123 788.284 582.339 792.366 606.391L821.946 830.014H596.237L625.817 606.391C629.899 582.339 633.431 558.123 636.082 533.962C637.793 518.385 626.422 500.662 618.313 485.365C611.084 472.099 603.741 458.947 596.237 445.901C557.001 377.161 586.527 287.837 660.804 259.713C663.121 258.835 665.442 258.066 667.868 257.292C694.728 248.328 723.785 248.328 750.645 257.292C753.021 258.066 755.337 258.835 757.653 259.713C831.825 287.837 861.291 377.161 821.946 445.901C814.277 458.947 806.933 472.099 799.87 485.365C791.815 500.941 780.39 518.495 782.156 533.962Z" fill="#3ADFE6"/>
</g>
<path d="M618.675 485.173L618.672 485.169C611.442 471.901 604.098 458.747 596.592 445.698C557.475 377.164 586.92 288.126 660.949 260.096L660.95 260.096C663.256 259.221 665.568 258.455 667.992 257.682L667.998 257.681C694.773 248.744 723.739 248.744 750.515 257.681L750.518 257.682C752.893 258.455 755.202 259.221 757.508 260.096L757.653 259.713L757.508 260.096C831.432 288.126 860.817 377.162 821.591 445.696C813.92 458.747 806.574 471.903 799.508 485.172L799.506 485.177C798.223 487.659 796.849 490.198 795.456 492.775C792.493 498.255 789.437 503.906 786.955 509.539C783.304 517.828 780.853 526.165 781.749 534.008C784.346 558.176 787.878 582.397 791.961 606.451C791.961 606.454 791.962 606.457 791.962 606.459L821.479 829.605H596.704L626.22 606.459C626.221 606.457 626.221 606.454 626.222 606.452C630.304 582.397 633.837 558.175 636.489 534.006C637.356 526.11 634.906 517.705 631.255 509.394C628.622 503.402 625.346 497.421 622.207 491.691C620.994 489.476 619.801 487.299 618.675 485.173Z" stroke="#33C6CC" stroke-width="0.818655"/>
<defs>
<filter id="filter0_df_6439_43465" x="75.865" y="484.53" width="1265.6" height="1367.69" filterUnits="userSpaceOnUse" color-interpolation-filters="sRGB">
<feFlood flood-opacity="0" result="BackgroundImageFix"/>
<feColorMatrix in="SourceAlpha" type="matrix" values="0 0 0 0 0 0 0 0 0 0 0 0 0 0 0 0 0 0 127 0" result="hardAlpha"/>
<feMorphology radius="96.427" operator="dilate" in="SourceAlpha" result="effect1_dropShadow_6439_43465"/>
<feOffset dy="12.0534"/>
<feGaussianBlur stdDeviation="192.854"/>
<feComposite in2="hardAlpha" operator="out"/>
<feColorMatrix type="matrix" values="0 0 0 0 0.25098 0 0 0 0 0.972549 0 0 0 0 1 0 0 0 1 0"/>
<feBlend mode="normal" in2="BackgroundImageFix" result="effect1_dropShadow_6439_43465"/>
<feBlend mode="normal" in="SourceGraphic" in2="effect1_dropShadow_6439_43465" result="shape"/>
<feGaussianBlur stdDeviation="96.427" result="effect2_foregroundBlur_6439_43465"/>
</filter>
<filter id="filter1_f_6439_43465" x="454.015" y="750.767" width="509.203" height="811.287" filterUnits="userSpaceOnUse" color-interpolation-filters="sRGB">
<feFlood flood-opacity="0" result="BackgroundImageFix"/>
<feBlend mode="normal" in="SourceGraphic" in2="BackgroundImageFix" result="shape"/>
<feGaussianBlur stdDeviation="65.4924" result="effect1_foregroundBlur_6439_43465"/>
</filter>
<filter id="filter2_f_6439_43465" x="388.523" y="685.275" width="640.188" height="942.271" filterUnits="userSpaceOnUse" color-interpolation-filters="sRGB">
<feFlood flood-opacity="0" result="BackgroundImageFix"/>
<feBlend mode="normal" in="SourceGraphic" in2="BackgroundImageFix" result="shape"/>
<feGaussianBlur stdDeviation="98.2386" result="effect1_foregroundBlur_6439_43465"/>
</filter>
<filter id="filter3_f_6439_43465" x="519.508" y="816.259" width="378.218" height="680.302" filterUnits="userSpaceOnUse" color-interpolation-filters="sRGB">
<feFlood flood-opacity="0" result="BackgroundImageFix"/>
<feBlend mode="normal" in="SourceGraphic" in2="BackgroundImageFix" result="shape"/>
<feGaussianBlur stdDeviation="32.7462" result="effect1_foregroundBlur_6439_43465"/>
</filter>
<filter id="filter4_f_6439_43465" x="560.449" y="857.192" width="296.335" height="598.436" filterUnits="userSpaceOnUse" color-interpolation-filters="sRGB">
<feFlood flood-opacity="0" result="BackgroundImageFix"/>
<feBlend mode="normal" in="SourceGraphic" in2="BackgroundImageFix" result="shape"/>
<feGaussianBlur stdDeviation="8.18655" result="effect1_foregroundBlur_6439_43465"/>
</filter>
<filter id="filter5_i_6439_43465" x="585" y="881.752" width="289.803" height="606.951" filterUnits="userSpaceOnUse" color-interpolation-filters="sRGB">
<feFlood flood-opacity="0" result="BackgroundImageFix"/>
<feBlend mode="normal" in="SourceGraphic" in2="BackgroundImageFix" result="shape"/>
<feColorMatrix in="SourceAlpha" type="matrix" values="0 0 0 0 0 0 0 0 0 0 0 0 0 0 0 0 0 0 127 0" result="hardAlpha"/>
<feOffset dx="42.57" dy="58.9431"/>
<feGaussianBlur stdDeviation="28.8166"/>
<feComposite in2="hardAlpha" operator="arithmetic" k2="-1" k3="1"/>
<feColorMatrix type="matrix" values="0 0 0 0 0.0235294 0 0 0 0 0.0745098 0 0 0 0 0.12549 0 0 0 0.6 0"/>
<feBlend mode="normal" in2="shape" result="effect1_innerShadow_6439_43465"/>
</filter>
<filter id="filter6_df_6439_43465" x="76.24" y="-106.538" width="1265.6" height="1367.69" filterUnits="userSpaceOnUse" color-interpolation-filters="sRGB">
<feFlood flood-opacity="0" result="BackgroundImageFix"/>
<feColorMatrix in="SourceAlpha" type="matrix" values="0 0 0 0 0 0 0 0 0 0 0 0 0 0 0 0 0 0 127 0" result="hardAlpha"/>
<feMorphology radius="96.427" operator="dilate" in="SourceAlpha" result="effect1_dropShadow_6439_43465"/>
<feOffset dy="12.0534"/>
<feGaussianBlur stdDeviation="192.854"/>
<feComposite in2="hardAlpha" operator="out"/>
<feColorMatrix type="matrix" values="0 0 0 0 0.25098 0 0 0 0 0.972549 0 0 0 0 1 0 0 0 1 0"/>
<feBlend mode="normal" in2="BackgroundImageFix" result="effect1_dropShadow_6439_43465"/>
<feBlend mode="normal" in="SourceGraphic" in2="effect1_dropShadow_6439_43465" result="shape"/>
<feGaussianBlur stdDeviation="96.427" result="effect2_foregroundBlur_6439_43465"/>
</filter>
<filter id="filter7_f_6439_43465" x="447.857" y="119.584" width="522.556" height="841.415" filterUnits="userSpaceOnUse" color-interpolation-filters="sRGB">
<feFlood flood-opacity="0" result="BackgroundImageFix"/>
<feBlend mode="normal" in="SourceGraphic" in2="BackgroundImageFix" result="shape"/>
<feGaussianBlur stdDeviation="65.4924" result="effect1_foregroundBlur_6439_43465"/>
</filter>
<filter id="filter8_f_6439_43465" x="382.365" y="54.092" width="653.541" height="972.4" filterUnits="userSpaceOnUse" color-interpolation-filters="sRGB">
<feFlood flood-opacity="0" result="BackgroundImageFix"/>
<feBlend mode="normal" in="SourceGraphic" in2="BackgroundImageFix" result="shape"/>
<feGaussianBlur stdDeviation="98.2386" result="effect1_foregroundBlur_6439_43465"/>
</filter>
<filter id="filter9_f_6439_43465" x="513.349" y="185.077" width="391.572" height="710.43" filterUnits="userSpaceOnUse" color-interpolation-filters="sRGB">
<feFlood flood-opacity="0" result="BackgroundImageFix"/>
<feBlend mode="normal" in="SourceGraphic" in2="BackgroundImageFix" result="shape"/>
<feGaussianBlur stdDeviation="32.7462" result="effect1_foregroundBlur_6439_43465"/>
</filter>
<filter id="filter10_f_6439_43465" x="554.291" y="226.009" width="309.689" height="628.565" filterUnits="userSpaceOnUse" color-interpolation-filters="sRGB">
<feFlood flood-opacity="0" result="BackgroundImageFix"/>
<feBlend mode="normal" in="SourceGraphic" in2="BackgroundImageFix" result="shape"/>
<feGaussianBlur stdDeviation="8.18655" result="effect1_foregroundBlur_6439_43465"/>
</filter>
<filter id="filter11_i_6439_43465" x="578.842" y="250.569" width="303.157" height="637.079" filterUnits="userSpaceOnUse" color-interpolation-filters="sRGB">
<feFlood flood-opacity="0" result="BackgroundImageFix"/>
<feBlend mode="normal" in="SourceGraphic" in2="BackgroundImageFix" result="shape"/>
<feColorMatrix in="SourceAlpha" type="matrix" values="0 0 0 0 0 0 0 0 0 0 0 0 0 0 0 0 0 0 127 0" result="hardAlpha"/>
<feOffset dx="42.57" dy="58.9431"/>
<feGaussianBlur stdDeviation="28.8166"/>
<feComposite in2="hardAlpha" operator="arithmetic" k2="-1" k3="1"/>
<feColorMatrix type="matrix" values="0 0 0 0 0.0235294 0 0 0 0 0.0745098 0 0 0 0 0.12549 0 0 0 0.6 0"/>
<feBlend mode="normal" in2="shape" result="effect1_innerShadow_6439_43465"/>
</filter>
</defs>
</svg>
