<svg width="420" height="434" viewBox="0 0 420 434" fill="none" xmlns="http://www.w3.org/2000/svg">
<path d="M58.488 0C54.7538 1.83514 51.4245 4.39652 48.6956 7.53375C45.9667 10.671 43.8933 14.3208 42.5969 18.269C28.179 94.6869 15.1001 171.327 1.17314 247.745C-1.05875 259.865 2.1998 267.485 11.8415 275.372C72.5191 325.099 132.869 375.272 192.892 425.89C197.502 430.556 203.626 433.431 210.167 434C216.707 433.431 222.831 430.556 227.442 425.89C287.197 375.153 347.443 324.98 408.18 275.372C417.777 267.485 421.035 259.865 418.848 247.745C404.877 171.327 391.842 94.6869 377.424 18.269C376.123 14.3169 374.043 10.6646 371.306 7.52715C368.569 4.38968 365.231 1.83042 361.489 0H58.488Z" fill="#10375B" fill-opacity="0.05"/>
<path d="M63.5504 7C59.941 8.77595 56.723 11.2547 54.0853 14.2907C51.4476 17.3268 49.4434 20.8589 48.1904 24.6797C34.2541 98.6324 21.6123 172.801 8.15065 246.754C5.99333 258.483 9.14301 265.856 18.4626 273.489C77.1127 321.612 135.446 370.166 193.464 419.152C197.92 423.667 203.839 426.45 210.161 427C216.483 426.45 222.403 423.667 226.859 419.152C284.617 370.051 342.85 321.497 401.558 273.489C410.834 265.856 413.984 258.483 411.87 246.754C398.365 172.801 385.766 98.6324 371.83 24.6797C370.572 20.8551 368.561 17.3206 365.916 14.2843C363.271 11.2481 360.044 8.77137 356.427 7H63.5504Z" fill="#10375B" fill-opacity="0.1"/>
<mask id="mask0_213_2091" style="mask-type:alpha" maskUnits="userSpaceOnUse" x="14" y="13" width="394" height="409">
<path d="M16.5992 246.443L16.5999 246.439C21.7263 218.26 26.7282 190.062 31.7304 161.861C39.4893 118.12 47.249 74.3742 55.4757 30.6886C56.6127 27.2741 58.4126 24.1171 60.7726 21.3991C63.0606 18.764 65.8309 16.5923 68.9331 15H352.547C355.657 16.5886 358.435 18.759 360.73 21.395C363.097 24.113 364.903 27.2717 366.044 30.6893C374.064 73.274 381.624 115.911 389.183 158.546C394.379 187.849 399.575 217.152 404.919 246.436C405.902 251.89 405.628 256.135 404.168 259.836C402.702 263.552 399.956 266.94 395.601 270.525C338.551 317.205 281.962 364.416 225.834 412.158L225.768 412.215L225.706 412.277C221.751 416.287 216.51 418.774 210.907 419.303C205.303 418.774 200.062 416.287 196.107 412.277L196.043 412.213L195.974 412.154C139.597 364.525 82.9123 317.316 25.9204 270.526L25.919 270.525C21.5415 266.938 18.7858 263.551 17.3206 259.836C15.8618 256.138 15.5967 251.896 16.5992 246.443Z" fill="#10375B" stroke="url(#paint0_linear_213_2091)" stroke-width="4"/>
</mask>
<g mask="url(#mask0_213_2091)">
<path d="M16.5992 246.443L16.5999 246.439C21.7263 218.26 26.7282 190.062 31.7304 161.861C39.4893 118.12 47.249 74.3742 55.4757 30.6886C56.6127 27.2741 58.4126 24.1171 60.7726 21.3991C63.0606 18.764 65.8309 16.5923 68.9331 15H352.547C355.657 16.5886 358.435 18.759 360.73 21.395C363.097 24.113 364.903 27.2717 366.044 30.6893C374.064 73.274 381.624 115.911 389.183 158.546C394.379 187.849 399.575 217.152 404.919 246.436C405.902 251.89 405.628 256.135 404.168 259.836C402.702 263.552 399.956 266.94 395.601 270.525C338.551 317.205 281.962 364.416 225.834 412.158L225.768 412.215L225.706 412.277C221.751 416.287 216.51 418.774 210.907 419.303C205.303 418.774 200.062 416.287 196.107 412.277L196.043 412.213L195.974 412.154C139.597 364.525 82.9123 317.316 25.9204 270.526L25.919 270.525C21.5415 266.938 18.7858 263.551 17.3206 259.836C15.8618 256.138 15.5967 251.896 16.5992 246.443Z" fill="#10375B" stroke="url(#paint1_linear_213_2091)" stroke-width="4"/>
<path d="M437.617 407.743C437.714 403.701 435.734 398.058 432.728 395.71C399.887 370.304 366.599 345.439 333.58 320.27C328.345 316.286 323.93 315.97 317.838 318.633C279.456 335.384 240.952 351.834 202.325 367.985C198.183 369.705 195.583 371.67 194.267 374.219C192.951 376.769 192.901 380.05 193.937 384.414C203.545 425.154 212.799 465.99 221.701 506.921C223.117 513.417 225.961 516.808 232.258 518.712C272.032 530.652 311.676 543.069 351.514 554.771C355.229 555.87 360.904 554.135 364.122 551.687L437.617 407.743Z" stroke="#40F8FF" stroke-width="0.6" stroke-miterlimit="10"/>
<path d="M437.979 411.162C438.086 407.126 436.107 401.483 433.084 399.141C400.26 373.729 366.954 348.899 333.953 323.695C328.717 319.711 324.303 319.396 318.211 322.058C279.821 338.805 241.317 355.256 202.698 371.411C198.556 373.13 195.956 375.095 194.623 377.65C193.29 380.205 193.273 383.476 194.31 387.839C203.917 428.58 213.172 469.415 222.074 510.347C223.489 516.842 226.334 520.233 232.631 522.137C272.399 534.089 312.043 546.505 351.875 558.191C355.591 559.289 361.277 557.56 364.483 555.106L437.979 411.162Z" stroke="#40F8FF" stroke-width="0.6" stroke-miterlimit="10"/>
<path d="M438.354 414.589C438.45 410.547 436.482 404.91 433.459 402.568C400.618 377.161 367.323 352.336 334.328 327.122C329.092 323.138 324.678 322.822 318.586 325.485C280.196 342.232 241.688 358.681 203.062 374.831C198.919 376.551 196.331 378.522 194.998 381.077C193.665 383.632 193.637 386.896 194.673 391.26C204.281 432 213.539 472.838 222.449 513.773C223.893 520.212 226.709 523.66 233.006 525.564C272.774 537.515 312.407 549.926 352.244 561.629C355.966 562.716 361.641 560.981 364.858 558.533L438.354 414.589Z" stroke="#40F8FF" stroke-width="0.6" stroke-miterlimit="10"/>
<path d="M438.728 418.016C438.825 413.974 436.846 408.331 433.834 405.995C400.993 380.588 367.721 355.775 334.68 330.566C329.444 326.581 325.035 326.283 318.949 328.934C280.552 345.677 242.044 362.126 203.425 378.281C199.283 380 196.683 381.966 195.361 384.526C194.039 387.087 194 390.346 195.037 394.709C204.644 435.45 213.903 476.287 222.812 517.223C224.228 523.718 227.061 527.103 233.358 529.007C273.126 540.959 312.77 553.376 352.608 565.078C356.329 566.165 362.004 564.431 365.221 561.982L438.728 418.016Z" stroke="#40F8FF" stroke-width="0.6" stroke-miterlimit="10"/>
<path d="M439.091 421.438C439.199 417.402 437.22 411.758 434.197 409.417C401.367 384.016 368.061 359.185 335.06 333.982C329.83 329.986 325.41 329.682 319.324 332.334C280.934 349.081 242.43 365.531 203.811 381.686C199.674 383.394 197.069 385.371 195.741 387.914C194.414 390.458 194.392 393.74 195.428 398.103C205.036 438.844 214.29 479.679 223.192 520.611C224.608 527.107 227.447 530.509 233.75 532.401C273.517 544.353 313.162 556.769 352.988 568.466C356.703 569.565 362.396 567.824 365.602 565.37L439.091 421.438Z" stroke="#40F8FF" stroke-width="0.6" stroke-miterlimit="10"/>
<path d="M439.466 424.864C439.563 420.822 437.595 415.185 434.572 412.843C401.731 387.437 368.436 362.612 335.435 337.409C330.205 333.413 325.785 333.109 319.699 335.76C281.317 352.511 242.809 368.96 204.174 385.107C200.038 386.815 197.444 388.797 196.116 391.341C194.789 393.885 194.756 397.16 195.792 401.524C205.4 442.264 214.658 483.102 223.567 524.037C225.012 530.476 227.822 533.935 234.125 535.828C273.892 547.78 313.525 560.19 353.363 571.893C357.078 572.991 362.754 571.256 365.971 568.808L439.466 424.864Z" stroke="#40F8FF" stroke-width="0.6" stroke-miterlimit="10"/>
<path d="M439.841 428.29C439.938 424.249 437.97 418.611 434.946 416.269C402.105 390.863 368.799 366.032 335.798 340.829C330.568 336.834 326.159 336.535 320.073 339.186C281.676 355.93 243.168 372.378 204.549 388.533C200.407 390.253 197.807 392.218 196.491 394.767C195.175 397.317 195.13 400.587 196.167 404.95C205.774 445.691 215.032 486.528 223.942 527.464C225.358 533.959 228.185 537.356 234.488 539.248C274.256 551.2 313.9 563.617 353.738 575.319C357.453 576.418 363.128 574.683 366.345 572.235L439.841 428.29Z" stroke="#40F8FF" stroke-width="0.6" stroke-miterlimit="10"/>
<path d="M440.146 431.684C440.254 427.648 438.274 422.005 435.262 419.669C402.421 394.263 369.115 369.432 336.114 344.229C330.884 340.233 326.464 339.929 320.372 342.591C281.987 359.331 243.482 375.782 204.859 391.944C200.717 393.663 198.117 395.628 196.79 398.172C195.463 400.716 195.441 403.997 196.477 408.361C206.084 449.101 215.339 489.937 224.241 530.868C225.685 537.308 228.501 540.755 234.804 542.648C274.572 554.599 314.216 567.016 354.054 578.718C357.769 579.817 363.444 578.082 366.65 575.628L440.146 431.684Z" stroke="#40F8FF" stroke-width="0.6" stroke-miterlimit="10"/>
<path d="M440.576 435.138C440.684 431.103 438.705 425.459 435.681 423.117C402.852 397.717 369.546 372.886 336.545 347.683C331.315 343.687 326.895 343.383 320.803 346.046C282.417 362.785 243.909 379.234 205.279 395.392C201.136 397.112 198.548 399.083 197.221 401.627C195.893 404.17 195.86 407.446 196.896 411.81C206.496 452.565 215.754 493.403 224.671 534.323C226.116 540.762 228.931 544.21 235.235 546.102C274.985 558.088 314.618 570.527 354.444 582.224C358.159 583.322 363.846 581.593 367.052 579.139L440.576 435.138Z" stroke="#40F8FF" stroke-width="0.6" stroke-miterlimit="10"/>
<path d="M440.912 438.559C441.008 434.517 439.046 428.868 436.023 426.526C403.192 401.183 369.91 376.307 336.92 351.109C331.679 347.108 327.27 346.81 321.178 349.472C282.785 366.208 244.277 382.657 205.654 398.819C201.511 400.538 198.912 402.504 197.596 405.053C196.28 407.603 196.229 410.884 197.271 415.236C206.875 455.984 216.133 496.822 225.046 537.749C226.491 544.189 229.295 547.63 235.61 549.529C275.366 561.475 315.01 573.891 354.848 585.593C358.563 586.692 364.239 584.957 367.456 582.509L440.912 438.559Z" stroke="#40F8FF" stroke-width="0.6" stroke-miterlimit="10"/>
<path d="M441.296 442.021C441.404 437.985 439.424 432.342 436.418 429.995C403.577 404.589 370.272 379.758 337.27 354.555C332.035 350.57 327.62 350.255 321.528 352.917C283.143 369.657 244.638 386.108 206.015 402.27C201.873 403.989 199.273 405.954 197.946 408.498C196.619 411.042 196.591 414.335 197.627 418.698C207.235 459.439 216.489 500.274 225.391 541.206C226.836 547.645 229.651 551.092 235.948 552.996C275.722 564.937 315.366 577.353 355.204 589.056C358.863 590.125 364.594 588.419 367.8 585.965L441.296 442.021Z" stroke="#40F8FF" stroke-width="0.6" stroke-miterlimit="10"/>
<path d="M441.683 445.426C441.791 441.39 439.812 435.747 436.794 433.393C403.964 407.993 370.664 383.151 337.657 357.959C332.422 353.974 328.007 353.659 321.915 356.322C283.53 373.061 245.022 389.51 206.391 405.668C202.249 407.388 199.66 409.359 198.333 411.903C197.006 414.446 196.967 417.733 198.003 422.097C207.61 462.837 216.869 503.675 225.778 544.61C227.223 551.049 230.038 554.497 236.336 556.401C276.109 568.341 315.753 580.757 355.58 592.454C359.295 593.553 364.982 591.824 368.187 589.37L441.683 445.426Z" stroke="#40F8FF" stroke-width="0.6" stroke-miterlimit="10"/>
<path d="M442.058 448.852C442.155 444.81 440.187 439.173 437.169 436.82C404.328 411.413 371.034 386.588 338.032 361.385C332.786 357.395 328.382 357.085 322.29 359.748C283.901 376.495 245.393 392.944 206.766 409.095C202.624 410.814 200.035 412.785 198.708 415.329C197.381 417.873 197.342 421.16 198.378 425.523C207.985 466.263 217.244 507.101 226.153 548.036C227.569 554.532 230.402 557.917 236.711 559.827C276.478 571.779 316.111 584.189 355.955 595.881C359.67 596.979 365.345 595.244 368.562 592.796L442.058 448.852Z" stroke="#40F8FF" stroke-width="0.6" stroke-miterlimit="10"/>
<path d="M442.454 452.29C442.562 448.254 440.583 442.61 437.571 440.274C404.725 414.794 371.396 390.009 338.394 364.806C333.159 360.821 328.744 360.506 322.653 363.168C284.263 379.915 245.759 396.366 207.139 412.521C202.997 414.24 200.397 416.205 199.064 418.76C197.731 421.315 197.715 424.586 198.751 428.949C208.359 469.69 217.613 510.525 226.515 551.457C227.931 557.953 230.775 561.343 237.073 563.247C276.84 575.199 316.485 587.615 356.322 599.318C360.044 600.405 365.719 598.67 368.925 596.216L442.454 452.29Z" stroke="#40F8FF" stroke-width="0.6" stroke-miterlimit="10"/>
<path d="M442.793 455.699C442.901 451.663 440.922 446.02 437.898 443.678C405.069 418.278 371.763 393.447 338.744 368.278C333.509 364.293 329.094 363.978 323.002 366.64C284.613 383.387 246.109 399.838 207.489 415.993C203.336 417.706 200.747 419.677 199.414 422.232C198.081 424.788 198.054 428.052 199.101 432.421C208.709 473.162 217.963 513.997 226.865 554.929C228.31 561.368 231.125 564.815 237.423 566.719C277.19 578.671 316.835 591.087 356.661 602.784C360.382 603.872 366.069 602.142 369.274 599.688L442.793 455.699Z" stroke="#40F8FF" stroke-width="0.6" stroke-miterlimit="10"/>
<path d="M443.167 459.125C443.264 455.084 441.296 449.446 438.272 447.104C405.431 421.698 372.137 396.873 339.141 371.659C333.906 367.674 329.485 367.37 323.399 370.021C285.017 386.772 246.509 403.221 207.875 419.368C203.733 421.088 201.144 423.059 199.811 425.614C198.478 428.169 198.451 431.433 199.487 435.797C209.094 476.537 218.353 517.375 227.262 558.31C228.678 564.806 231.522 568.196 237.82 570.1C277.587 582.052 317.22 594.463 357.058 606.165C360.779 607.253 366.454 605.518 369.671 603.069L443.167 459.125Z" stroke="#40F8FF" stroke-width="0.6" stroke-miterlimit="10"/>
<path d="M443.531 462.547C443.639 458.511 441.659 452.868 438.647 450.532C405.806 425.126 372.501 400.295 339.499 375.092C334.27 371.096 329.849 370.792 323.763 373.443C285.374 390.19 246.869 406.641 208.25 422.795C204.114 424.504 201.508 426.48 200.192 429.03C198.876 431.579 198.832 434.849 199.868 439.213C209.475 479.953 218.73 520.789 227.632 561.72C229.047 568.216 231.886 571.618 238.189 573.511C277.928 585.519 317.572 597.935 357.41 609.638C361.069 610.708 366.806 608.99 370.012 606.536L443.531 462.547Z" stroke="#40F8FF" stroke-width="0.6" stroke-miterlimit="10"/>
<path d="M443.906 465.973C444.014 461.937 442.034 456.294 439.011 453.952C406.125 428.523 372.876 403.721 339.874 378.518C334.645 374.522 330.224 374.218 324.138 376.869C285.756 393.62 247.252 410.071 208.625 426.222C204.472 427.935 201.883 429.907 200.556 432.45C199.229 434.994 199.195 438.27 200.243 442.639C209.85 483.379 219.105 524.215 228.007 565.147C229.451 571.586 232.261 575.044 238.564 576.937C278.303 588.945 317.873 601.367 357.774 613.059C361.489 614.157 367.176 612.428 370.381 609.974L443.906 465.973Z" stroke="#40F8FF" stroke-width="0.6" stroke-miterlimit="10"/>
<path d="M444.28 469.4C444.343 465.341 442.421 459.698 439.386 457.379C406.545 431.972 373.25 407.147 340.249 381.944C335.019 377.949 330.599 377.644 324.513 380.296C286.123 397.043 247.615 413.492 208.988 429.642C204.846 431.362 202.258 433.333 200.93 435.877C199.603 438.42 199.57 441.696 200.606 446.06C210.213 486.8 219.472 527.638 228.381 568.573C229.797 575.069 232.635 578.471 238.939 580.363C278.706 592.315 318.339 604.726 358.177 616.428C361.892 617.527 367.568 615.792 370.785 613.344L444.28 469.4Z" stroke="#40F8FF" stroke-width="0.6" stroke-miterlimit="10"/>
<path d="M444.655 472.828C444.751 468.787 442.772 463.143 439.76 460.807C406.896 435.39 373.613 410.57 340.611 385.367C335.382 381.371 330.962 381.067 324.87 383.73C286.495 400.466 247.991 416.916 209.357 433.082C205.215 434.802 202.615 436.767 201.299 439.316C199.983 441.866 199.938 445.136 200.974 449.499C210.578 490.247 219.833 531.083 228.738 572.007C230.183 578.446 232.998 581.894 239.302 583.786C279.04 595.795 318.662 608.199 358.522 619.913C362.181 620.983 367.913 619.277 371.13 616.829L444.655 472.828Z" stroke="#40F8FF" stroke-width="0.6" stroke-miterlimit="10"/>
<path d="M445.015 476.248C445.112 472.206 443.144 466.569 440.12 464.227C407.291 438.826 373.985 413.995 340.984 388.792C335.754 384.797 331.334 384.493 325.242 387.155C286.856 403.895 248.352 420.345 209.729 436.508C205.587 438.227 202.987 440.192 201.659 442.736C200.332 445.28 200.304 448.573 201.346 452.925C210.946 493.68 220.201 534.516 229.11 575.432C230.555 581.872 233.37 585.319 239.674 587.212C279.441 599.163 319.086 611.58 358.912 623.276C362.627 624.375 368.314 622.646 371.52 620.192L445.015 476.248Z" stroke="#40F8FF" stroke-width="0.6" stroke-miterlimit="10"/>
<path d="M445.361 479.731C445.458 475.689 443.495 470.04 440.472 467.698C407.665 442.253 374.36 417.422 341.358 392.219C336.129 388.223 331.708 387.919 325.616 390.581C287.231 407.321 248.723 423.77 210.092 439.928C205.95 441.648 203.361 443.619 202.034 446.162C200.707 448.706 200.668 451.993 201.71 456.345C211.309 497.101 220.568 537.939 229.485 578.859C230.929 585.298 233.745 588.745 240.048 590.638C279.787 602.646 319.431 615.063 359.252 626.771C362.967 627.869 368.642 626.134 371.86 623.686L445.361 479.731Z" stroke="#40F8FF" stroke-width="0.6" stroke-miterlimit="10"/>
<path d="M445.759 483.112C445.856 479.07 443.877 473.427 440.87 471.08C408.029 445.673 374.718 420.854 341.677 395.616C336.442 391.632 332.038 391.322 325.946 393.985C287.58 410.724 249.064 427.179 210.399 443.348C206.257 445.068 203.657 447.033 202.341 449.583C201.025 452.132 200.975 455.413 202.011 459.777C211.619 500.517 220.877 541.355 229.786 582.29C231.231 588.729 234.035 592.171 240.332 594.075C280.106 606.015 319.75 618.432 359.588 630.134C363.247 631.204 368.978 629.498 372.196 627.05L445.759 483.112Z" stroke="#40F8FF" stroke-width="0.6" stroke-miterlimit="10"/>
<path d="M446.122 486.535C446.23 482.499 444.251 476.856 441.233 474.503C408.437 449.12 375.098 424.271 342.096 399.068C336.861 395.084 332.446 394.768 326.354 397.431C287.965 414.178 249.461 430.629 210.841 446.783C206.699 448.503 204.099 450.468 202.772 453.012C201.445 455.556 201.417 458.848 202.453 463.212C212.061 503.952 221.315 544.788 230.217 585.719C231.662 592.159 234.477 595.606 240.775 597.51C280.525 609.496 320.203 621.929 359.996 633.609C363.711 634.707 369.398 632.978 372.603 630.524L446.122 486.535Z" stroke="#40F8FF" stroke-width="0.6" stroke-miterlimit="10"/>
<path d="M446.496 489.961C446.649 485.948 444.625 480.282 441.607 477.929C408.789 452.506 375.472 427.698 342.447 402.483C337.212 398.499 332.798 398.183 326.706 400.846C288.339 417.604 249.827 434.061 211.17 450.215C207.028 451.934 204.439 453.905 203.112 456.449C201.785 458.993 201.746 462.28 202.782 466.643C212.389 507.384 221.648 548.222 230.557 589.157C231.973 595.653 234.817 599.043 241.115 600.947C280.882 612.899 320.526 625.315 360.359 637.001C364.074 638.1 369.76 636.371 372.966 633.916L446.496 489.961Z" stroke="#40F8FF" stroke-width="0.6" stroke-miterlimit="10"/>
<path d="M446.894 493.342C446.991 489.301 445.023 483.663 441.999 481.321C409.135 455.96 375.83 431.13 342.834 405.915C337.599 401.931 333.195 401.621 327.103 404.284C288.706 421.027 250.198 437.476 211.579 453.63C207.437 455.35 204.837 457.315 203.515 459.876C202.194 462.437 202.155 465.695 203.191 470.059C212.798 510.799 222.057 551.637 230.966 592.572C232.382 599.068 235.215 602.453 241.512 604.357C281.28 616.309 320.924 628.725 360.762 640.428C364.483 641.515 370.158 639.78 373.375 637.332L446.894 493.342Z" stroke="#40F8FF" stroke-width="0.6" stroke-miterlimit="10"/>
<path d="M447.233 496.807C447.341 492.771 445.362 487.128 442.35 484.792C409.509 459.386 376.203 434.555 343.219 409.346C337.983 405.362 333.569 405.046 327.477 407.709C289.091 424.505 250.579 440.962 211.941 457.078C207.799 458.798 205.199 460.763 203.866 463.318C202.533 465.873 202.517 469.143 203.553 473.507C213.16 514.247 222.415 555.083 231.317 596.014C232.762 602.454 235.577 605.901 241.874 607.805C281.642 619.757 321.286 632.173 361.124 643.876C364.789 644.934 370.52 643.228 373.726 640.774L447.233 496.807Z" stroke="#40F8FF" stroke-width="0.6" stroke-miterlimit="10"/>
<path d="M447.607 500.235C447.714 496.199 445.724 490.55 442.655 488.185C409.825 462.784 376.52 437.954 343.524 412.739C338.289 408.755 333.868 408.451 327.782 411.102C289.393 427.849 250.885 444.298 212.258 460.449C208.116 462.168 205.527 464.139 204.194 466.694C202.861 469.249 202.834 472.514 203.87 476.877C213.477 517.617 222.736 558.455 231.645 599.39C233.061 605.886 235.905 609.277 242.203 611.181C282.004 623.207 321.648 635.623 361.418 647.291C365.133 648.39 370.825 646.649 374.031 644.195L447.607 500.235Z" stroke="#40F8FF" stroke-width="0.6" stroke-miterlimit="10"/>
<path d="M447.981 503.662C448.066 499.643 446.109 493.983 443.086 491.641C410.245 466.235 376.95 441.41 343.983 416.224C338.742 412.222 334.333 411.924 328.247 414.575C289.857 431.322 251.349 447.771 212.722 463.922C208.586 465.63 205.98 467.607 204.664 470.156C203.348 472.706 203.304 475.976 204.34 480.339C213.948 521.079 223.206 561.917 232.115 602.852C233.531 609.348 236.358 612.745 242.673 614.643C282.378 626.634 321.982 639.101 361.848 650.747C365.564 651.846 371.239 650.111 374.462 647.651L447.981 503.662Z" stroke="#40F8FF" stroke-width="0.6" stroke-miterlimit="10"/>
<path d="M448.345 507.083C448.453 503.047 446.496 497.416 443.427 495.051C410.62 469.662 377.314 444.831 344.33 419.594C339.101 415.598 334.68 415.294 328.594 417.945C290.205 434.692 251.7 451.143 213.081 467.298C208.939 469.017 206.339 470.982 205.012 473.526C203.685 476.07 203.663 479.351 204.699 483.715C214.306 524.455 223.561 565.291 232.463 606.222C233.907 612.662 236.717 616.12 243.02 618.013C282.742 630.055 322.386 642.472 362.19 654.157C365.905 655.255 371.614 653.538 374.82 651.084L448.345 507.083Z" stroke="#40F8FF" stroke-width="0.6" stroke-miterlimit="10"/>
<path d="M434.437 405.177C434.544 401.141 432.565 395.498 429.542 393.156C396.718 367.745 363.412 342.914 330.411 317.711C325.175 313.726 320.761 313.411 314.669 316.073C276.279 332.82 237.775 349.271 199.156 365.426C195.002 367.14 192.414 369.111 191.081 371.666C189.748 374.221 189.72 377.485 190.768 381.854C200.375 422.595 209.63 463.431 218.532 504.362C219.947 510.858 222.792 514.248 229.089 516.152C268.857 528.104 308.501 540.521 348.328 552.217C352.049 553.305 357.735 551.576 360.941 549.121L434.437 405.177Z" stroke="#40F8FF" stroke-width="0.6" stroke-miterlimit="10"/>
<path d="M430.152 402.99C430.26 398.954 428.28 393.311 425.257 390.969C392.433 365.557 359.127 340.726 326.126 315.523C320.89 311.539 316.476 311.223 310.384 313.886C271.994 330.633 233.49 347.083 194.871 363.238C190.729 364.958 188.129 366.923 186.796 369.478C185.463 372.033 185.447 375.303 186.483 379.667C196.09 420.407 205.345 461.243 214.247 502.174C215.662 508.67 218.507 512.061 224.804 513.965C264.549 525.962 304.193 538.378 344.053 550.092C347.774 551.179 353.461 549.45 356.667 546.996L430.152 402.99Z" stroke="#40F8FF" stroke-width="0.6" stroke-miterlimit="10"/>
<path d="M425.867 400.801C425.975 396.765 423.996 391.122 420.983 388.785C388.092 363.339 354.843 338.537 321.841 313.334C316.606 309.35 312.162 309.091 306.122 311.708C267.74 328.459 229.236 344.91 190.609 361.061C186.467 362.78 183.867 364.745 182.545 367.306C181.223 369.867 181.184 373.126 182.221 377.489C191.828 418.23 201.083 459.065 209.985 499.997C211.4 506.493 214.245 509.883 220.542 511.787C260.264 523.773 299.852 536.16 339.746 547.892C343.467 548.979 349.142 547.244 352.348 544.79L425.867 400.801Z" stroke="#40F8FF" stroke-width="0.6" stroke-miterlimit="10"/>
<path d="M421.594 398.62C421.69 394.578 419.722 388.941 416.699 386.599C383.864 361.181 350.558 336.35 317.556 311.147C312.321 307.163 307.918 306.853 301.826 309.516C263.429 326.259 224.921 342.708 186.302 358.862C182.16 360.582 179.56 362.547 178.238 365.108C176.916 367.669 176.877 370.927 177.914 375.291C187.521 416.031 196.779 456.869 205.689 497.804C207.105 504.3 209.938 507.685 216.235 509.589C255.979 521.586 295.624 534.002 335.462 545.705C339.183 546.792 344.858 545.057 348.075 542.609L421.594 398.62Z" stroke="#40F8FF" stroke-width="0.6" stroke-miterlimit="10"/>
<path d="M417.307 396.431C417.404 392.39 415.436 386.752 412.412 384.41C379.577 358.993 346.283 334.168 313.236 308.942C308.001 304.957 303.586 304.642 297.494 307.304C259.127 324.063 220.619 340.512 181.97 356.651C177.828 358.37 175.239 360.341 173.906 362.896C172.573 365.452 172.545 368.716 173.582 373.079C183.189 413.82 192.448 454.658 201.357 495.593C202.773 502.088 205.617 505.479 211.914 507.383C251.682 519.335 291.315 531.746 331.153 543.448C334.874 544.536 340.549 542.801 343.766 540.352L417.307 396.431Z" stroke="#40F8FF" stroke-width="0.6" stroke-miterlimit="10"/>
<path d="M413.023 394.244C413.13 390.208 411.151 384.565 408.128 382.223C375.304 356.811 341.998 331.98 308.996 306.777C303.761 302.793 299.347 302.477 293.255 305.14C254.865 321.887 216.357 338.336 177.73 354.486C173.588 356.206 171 358.177 169.667 360.732C168.334 363.287 168.306 366.551 169.342 370.915C178.95 411.655 188.208 452.493 197.118 493.428C198.533 499.924 201.378 503.315 207.675 505.219C247.443 517.171 287.087 529.587 326.913 541.284C330.634 542.371 336.321 540.642 339.527 538.188L413.023 394.244Z" stroke="#40F8FF" stroke-width="0.6" stroke-miterlimit="10"/>
<path d="M408.736 392.055C408.844 388.019 406.876 382.382 403.808 380.017C371.018 354.623 337.712 329.792 304.71 304.589C299.475 300.604 295.061 300.289 288.969 302.951C250.579 319.698 212.075 336.149 173.456 352.304C169.314 354.023 166.714 355.988 165.381 358.543C164.047 361.098 164.031 364.369 165.068 368.732C174.675 409.473 183.93 450.308 192.831 491.24C194.247 497.735 197.091 501.126 203.389 503.03C243.133 515.027 282.778 527.444 322.57 539.123C326.291 540.21 331.978 538.481 335.184 536.027L408.736 392.055Z" stroke="#40F8FF" stroke-width="0.6" stroke-miterlimit="10"/>
<path d="M404.474 389.878C404.582 385.842 402.603 380.199 399.591 377.863C366.733 352.434 333.427 327.603 300.426 302.4C295.191 298.416 290.747 298.157 284.639 300.74C246.257 317.491 207.753 333.941 169.126 350.092C164.984 351.812 162.384 353.777 161.051 356.332C159.718 358.887 159.701 362.157 160.738 366.521C170.345 407.261 179.6 448.097 188.502 489.028C189.917 495.524 192.762 498.915 199.059 500.819C238.827 512.771 278.471 525.187 318.309 536.889C322.03 537.977 327.705 536.242 330.911 533.788L404.474 389.878Z" stroke="#40F8FF" stroke-width="0.6" stroke-miterlimit="10"/>
<path d="M400.177 387.685C400.273 383.643 398.294 378 395.282 375.664C362.447 350.246 329.141 325.416 296.139 300.212C290.904 296.228 286.501 295.918 280.409 298.581C242.012 315.324 203.504 331.773 164.885 347.928C160.743 349.647 158.143 351.612 156.821 354.173C155.499 356.734 155.46 359.993 156.497 364.356C166.104 405.097 175.363 445.934 184.272 486.869C185.688 493.365 188.521 496.75 194.818 498.654C234.586 510.606 274.23 523.022 314.068 534.725C317.789 535.812 323.464 534.077 326.681 531.629L400.177 387.685Z" stroke="#40F8FF" stroke-width="0.6" stroke-miterlimit="10"/>
<path d="M395.893 385.497C395.989 381.455 394.021 375.818 390.998 373.476C358.163 348.058 324.868 323.233 291.867 298.03C286.632 294.046 282.188 293.787 276.125 296.393C237.736 313.14 199.228 329.589 160.601 345.739C156.459 347.459 153.87 349.43 152.537 351.985C151.204 354.54 151.176 357.804 152.213 362.168C161.82 402.908 171.079 443.746 179.988 484.681C181.404 491.177 184.237 494.562 190.545 496.472C230.313 508.424 269.946 520.834 309.784 532.537C313.505 533.624 319.18 531.889 322.397 529.441L395.893 385.497Z" stroke="#40F8FF" stroke-width="0.6" stroke-miterlimit="10"/>
<path d="M391.607 383.308C391.703 379.267 389.735 373.629 386.712 371.287C353.888 345.875 320.582 321.045 287.581 295.841C282.345 291.857 277.902 291.598 271.839 294.204C233.45 310.951 194.941 327.4 156.315 343.551C152.173 345.27 149.584 347.241 148.251 349.796C146.918 352.351 146.89 355.616 147.927 359.979C157.534 400.72 166.792 441.557 175.702 482.493C177.118 488.988 179.962 492.379 186.259 494.283C226.027 506.235 265.671 518.651 305.498 530.348C309.219 531.435 314.894 529.701 318.111 527.252L391.607 383.308Z" stroke="#40F8FF" stroke-width="0.6" stroke-miterlimit="10"/>
<path d="M387.322 381.122C387.43 377.086 385.451 371.442 382.427 369.101C349.649 343.712 316.298 318.858 283.296 293.655C278.061 289.67 273.646 289.355 267.555 292.018C229.173 308.768 190.668 325.219 152.042 341.37C147.888 343.084 145.3 345.055 143.966 347.61C142.633 350.165 142.606 353.429 143.653 357.799C153.261 398.539 162.516 439.375 171.417 480.306C172.833 486.802 175.677 490.193 181.975 492.097C221.719 504.094 261.409 516.533 301.19 528.207C304.911 529.294 310.598 527.565 313.804 525.111L387.322 381.122Z" stroke="#40F8FF" stroke-width="0.6" stroke-miterlimit="10"/>
<path d="M382.991 378.91C383.099 374.874 381.119 369.231 378.107 366.895C345.317 341.5 312.012 316.669 279.01 291.466C273.775 287.482 269.36 287.166 263.269 289.829C224.879 306.576 186.375 323.027 147.755 339.181C143.613 340.901 141.013 342.866 139.68 345.421C138.347 347.976 138.331 351.246 139.367 355.61C148.975 396.35 158.229 437.186 167.131 478.117C168.547 484.613 171.391 488.004 177.689 489.908C217.456 501.86 257.101 514.276 296.938 525.979C300.659 527.066 306.335 525.331 309.541 522.877L382.991 378.91Z" stroke="#40F8FF" stroke-width="0.6" stroke-miterlimit="10"/>
<path d="M378.762 376.751C378.859 372.71 376.879 367.066 373.867 364.73C341.032 339.313 307.727 314.482 274.725 289.279C269.49 285.294 265.075 284.979 258.983 287.642C220.594 304.389 182.089 320.839 143.47 336.994C139.328 338.713 136.728 340.679 135.406 343.239C134.085 345.8 134.046 349.059 135.082 353.422C144.69 394.163 153.944 434.999 162.846 475.93C164.262 482.426 167.106 485.817 173.404 487.721C213.171 499.672 252.815 512.089 292.653 523.791C296.374 524.879 302.049 523.144 305.267 520.695L378.762 376.751Z" stroke="#40F8FF" stroke-width="0.6" stroke-miterlimit="10"/>
<path d="M374.479 374.563C374.575 370.521 372.607 364.884 369.584 362.542C336.749 337.125 303.443 312.294 270.453 287.096C265.15 283.077 260.774 282.853 254.711 285.459C216.314 302.202 177.806 318.651 139.187 334.806C135.045 336.525 132.445 338.49 131.123 341.051C129.801 343.612 129.762 346.871 130.799 351.234C140.406 391.975 149.665 432.812 158.574 473.748C159.99 480.243 162.823 483.628 169.131 485.538C208.888 497.484 248.532 509.9 288.37 521.603C292.091 522.69 297.766 520.955 300.983 518.507L374.479 374.563Z" stroke="#40F8FF" stroke-width="0.6" stroke-miterlimit="10"/>
<path d="M370.193 372.375C370.289 368.334 368.321 362.696 365.298 360.354C332.463 334.937 299.168 310.112 266.167 284.909C260.932 280.924 256.517 280.609 250.425 283.271C212.036 300.018 173.528 316.467 134.901 332.618C130.759 334.337 128.17 336.308 126.837 338.864C125.504 341.419 125.476 344.683 126.513 349.046C136.12 389.787 145.379 430.625 154.288 471.56C155.704 478.056 158.548 481.446 164.845 483.35C204.613 495.302 244.246 507.713 284.084 519.415C287.805 520.503 293.48 518.768 296.697 516.319L370.193 372.375Z" stroke="#40F8FF" stroke-width="0.6" stroke-miterlimit="10"/>
<path d="M365.908 370.188C366.016 366.152 364.037 360.509 361.013 358.167C328.167 332.744 294.884 307.924 261.882 282.721C256.647 278.737 252.232 278.421 246.141 281.084C207.759 297.835 169.254 314.286 130.628 330.436C126.474 332.15 123.885 334.121 122.552 336.676C121.219 339.231 121.192 342.496 122.239 346.865C131.847 387.605 141.101 428.441 150.003 469.372C151.419 475.868 154.263 479.259 160.561 481.163C200.328 493.115 239.973 505.531 279.799 517.228C283.52 518.315 289.207 516.586 292.413 514.132L365.908 370.188Z" stroke="#40F8FF" stroke-width="0.6" stroke-miterlimit="10"/>
<path d="M361.622 367.999C361.73 363.964 359.75 358.32 356.727 355.978C323.903 330.567 290.631 305.753 257.596 280.533C252.36 276.548 247.946 276.233 241.854 278.895C203.464 295.642 164.96 312.093 126.341 328.248C122.199 329.967 119.599 331.933 118.266 334.488C116.933 337.043 116.916 340.313 117.953 344.676C127.56 385.417 136.815 426.253 145.717 467.184C147.132 473.68 149.977 477.07 156.274 478.974C196.042 490.926 235.686 503.343 275.513 515.039C279.234 516.127 284.92 514.398 288.126 511.943L361.622 367.999Z" stroke="#40F8FF" stroke-width="0.6" stroke-miterlimit="10"/>
<path d="M357.338 365.812C357.446 361.776 355.466 356.133 352.454 353.797C319.619 328.379 286.314 303.548 253.312 278.345C248.077 274.361 243.662 274.045 237.57 276.708C199.203 293.467 160.695 309.915 122.046 326.055C117.904 327.774 115.304 329.739 113.982 332.3C112.66 334.861 112.622 338.12 113.658 342.483C123.265 383.224 132.52 424.059 141.422 464.991C142.837 471.486 145.682 474.877 151.979 476.781C191.747 488.733 231.391 501.149 271.229 512.852C274.95 513.939 280.625 512.204 283.831 509.75L357.338 365.812Z" stroke="#40F8FF" stroke-width="0.6" stroke-miterlimit="10"/>
<path d="M353.063 363.629C353.159 359.587 351.191 353.95 348.168 351.608C315.332 326.191 282.027 301.36 249.025 276.157C243.79 272.172 239.387 271.862 233.295 274.525C194.898 291.268 156.39 307.717 117.771 323.872C113.628 325.591 111.028 327.556 109.707 330.117C108.385 332.678 108.346 335.937 109.382 340.3C118.99 381.041 128.248 421.878 137.158 462.813C138.573 469.309 141.406 472.694 147.704 474.598C187.471 486.55 227.116 498.966 266.953 510.669C270.675 511.756 276.35 510.021 279.567 507.573L353.063 363.629Z" stroke="#40F8FF" stroke-width="0.6" stroke-miterlimit="10"/>
<path d="M348.779 361.442C348.875 357.4 346.907 351.762 343.884 349.421C311.049 324.003 277.754 299.178 244.753 273.975C239.518 269.99 235.103 269.675 229.011 272.338C190.622 289.085 152.114 305.534 113.487 321.684C109.345 323.404 106.756 325.375 105.423 327.93C104.09 330.485 104.062 333.749 105.099 338.113C114.706 378.853 123.965 419.691 132.874 460.626C134.29 467.122 137.134 470.513 143.431 472.417C183.199 484.368 222.832 496.779 262.67 508.481C266.391 509.569 272.066 507.834 275.283 505.386L348.779 361.442Z" stroke="#40F8FF" stroke-width="0.6" stroke-miterlimit="10"/>
<path d="M344.493 359.252C344.6 355.216 342.621 349.573 339.598 347.231C306.774 321.82 273.468 296.989 240.466 271.786C235.231 267.801 230.788 267.542 224.714 270.142C186.332 286.893 147.823 303.342 109.189 319.489C105.047 321.209 102.458 323.18 101.125 325.735C99.7922 328.29 99.7647 331.554 100.801 335.918C110.408 376.658 119.667 417.496 128.576 458.431C129.992 464.927 132.836 468.318 139.134 470.222C178.901 482.173 218.546 494.59 258.372 506.286C262.093 507.374 267.78 505.645 270.986 503.191L344.493 359.252Z" stroke="#40F8FF" stroke-width="0.6" stroke-miterlimit="10"/>
<path d="M340.208 357.066C340.316 353.03 338.337 347.387 335.313 345.045C302.489 319.633 269.15 294.785 236.182 269.599C230.947 265.614 226.532 265.299 220.44 267.962C182.058 284.712 143.554 301.163 104.927 317.314C100.785 319.034 98.1853 320.999 96.8522 323.554C95.5191 326.109 95.5029 329.379 96.5392 333.743C106.147 374.483 115.401 415.319 124.303 456.25C125.719 462.746 128.563 466.137 134.861 468.041C174.628 479.992 214.273 492.409 254.099 504.106C257.82 505.193 263.507 503.464 266.712 501.01L340.208 357.066Z" stroke="#40F8FF" stroke-width="0.6" stroke-miterlimit="10"/>
<path d="M335.922 354.876C336.03 350.84 334.05 345.197 331.038 342.861C298.203 317.444 264.897 292.613 231.896 267.41C226.706 263.448 222.217 263.166 216.154 265.772C177.742 282.508 139.238 298.959 100.641 315.125C96.4988 316.844 93.8989 318.809 92.5659 321.364C91.2328 323.92 91.2166 327.19 92.2528 331.553C101.86 372.294 111.115 413.129 120.017 454.061C121.432 460.557 124.277 463.947 130.574 465.851C170.342 477.803 209.986 490.219 249.824 501.922C253.545 503.009 259.22 501.274 262.426 498.82L335.922 354.876Z" stroke="#40F8FF" stroke-width="0.6" stroke-miterlimit="10"/>
<path d="M331.649 352.695C331.745 348.653 329.766 343.01 326.754 340.673C293.919 315.256 260.613 290.425 227.611 265.222C222.376 261.238 217.978 261.002 211.881 263.59C173.484 280.334 134.976 296.783 96.3567 312.937C92.2146 314.657 89.6147 316.622 88.2929 319.183C86.9711 321.744 86.9323 325.002 87.9686 329.366C97.576 370.106 106.834 410.944 115.744 451.879C117.16 458.375 119.993 461.76 126.29 463.664C166.058 475.616 205.702 488.032 245.54 499.734C249.261 500.822 254.936 499.087 258.153 496.639L331.649 352.695Z" stroke="#40F8FF" stroke-width="0.6" stroke-miterlimit="10"/>
<path d="M327.362 350.507C327.458 346.465 325.49 340.828 322.467 338.486C289.632 313.068 256.337 288.243 223.336 263.04C218.089 259.05 213.686 258.74 207.594 261.403C169.212 278.154 130.704 294.603 92.0698 310.749C87.9277 312.469 85.3391 314.44 84.006 316.995C82.6729 319.55 82.6454 322.814 83.6817 327.178C93.2891 367.918 102.548 408.756 111.457 449.691C112.873 456.187 115.706 459.572 122.014 461.482C161.782 473.434 201.415 485.844 241.253 497.547C244.974 498.634 250.649 496.899 253.866 494.451L327.362 350.507Z" stroke="#40F8FF" stroke-width="0.6" stroke-miterlimit="10"/>
<path d="M323.067 348.314C323.163 344.272 321.195 338.635 318.172 336.293C285.359 310.887 252.054 286.056 219.052 260.853C213.817 256.868 209.402 256.553 203.311 259.215C164.921 275.962 126.413 292.411 87.7861 308.562C83.644 310.282 81.0554 312.253 79.7223 314.808C78.3893 317.363 78.3617 320.627 79.398 324.991C89.0055 365.731 98.2639 406.569 107.173 447.504C108.589 454 111.433 457.39 117.731 459.294C157.498 471.246 197.143 483.663 236.969 495.359C240.69 496.447 246.365 494.712 249.583 492.263L323.067 348.314Z" stroke="#40F8FF" stroke-width="0.6" stroke-miterlimit="10"/>
<path d="M318.794 346.132C318.902 342.096 316.923 336.453 313.899 334.111C281.075 308.699 247.77 283.868 214.768 258.665C209.533 254.681 205.118 254.365 199.026 257.028C160.644 273.779 122.14 290.23 83.5133 306.38C79.3598 308.094 76.7712 310.065 75.4381 312.62C74.1051 315.175 74.0776 318.44 75.1251 322.809C84.7326 363.549 93.9872 404.385 102.889 445.316C104.305 451.812 107.149 455.203 113.447 457.107C153.214 469.059 192.858 481.475 232.685 493.172C236.406 494.259 242.092 492.53 245.298 490.076L318.794 346.132Z" stroke="#40F8FF" stroke-width="0.6" stroke-miterlimit="10"/>
<path d="M314.508 343.943C314.615 339.907 312.636 334.264 309.624 331.927C276.789 306.51 243.483 281.679 210.482 256.476C205.224 252.48 200.803 252.233 194.74 254.839C156.358 271.589 117.854 288.04 79.2269 304.191C75.0848 305.911 72.4849 307.876 71.1518 310.431C69.8187 312.986 69.8025 316.256 70.8388 320.62C80.4462 361.36 89.7008 402.196 98.6027 443.127C100.018 449.623 102.863 453.014 109.16 454.918C148.928 466.869 188.572 479.286 228.41 490.988C232.131 492.076 237.806 490.341 241.012 487.887L314.508 343.943Z" stroke="#40F8FF" stroke-width="0.6" stroke-miterlimit="10"/>
<path d="M310.234 341.761C310.331 337.719 308.351 332.076 305.339 329.74C272.504 304.322 239.198 279.491 206.197 254.288C200.962 250.304 196.496 250.034 190.455 252.651C152.066 269.398 113.561 285.849 74.9421 302.004C70.8 303.723 68.2001 305.688 66.8783 308.249C65.5566 310.81 65.5177 314.069 66.554 318.432C76.1615 359.172 85.4161 400.008 94.3179 440.94C95.7337 447.435 98.5779 450.826 104.875 452.73C144.643 464.682 184.287 477.098 224.125 488.801C227.846 489.888 233.521 488.153 236.739 485.705L310.234 341.761Z" stroke="#40F8FF" stroke-width="0.6" stroke-miterlimit="10"/>
<path d="M16.5992 246.443L16.5999 246.439C21.7263 218.26 26.7282 190.062 31.7304 161.861C39.4893 118.12 47.249 74.3742 55.4757 30.6886C56.6127 27.2741 58.4126 24.1171 60.7726 21.3991C63.0606 18.764 65.8309 16.5923 68.9331 15H352.547C355.657 16.5886 358.435 18.759 360.73 21.395C363.097 24.113 364.903 27.2717 366.044 30.6893C374.064 73.274 381.624 115.911 389.183 158.546C394.379 187.849 399.575 217.152 404.919 246.436C405.902 251.89 405.628 256.135 404.168 259.836C402.702 263.552 399.956 266.94 395.601 270.525C338.551 317.205 281.962 364.416 225.834 412.158L225.768 412.215L225.706 412.277C221.751 416.287 216.51 418.774 210.907 419.303C205.303 418.774 200.062 416.287 196.107 412.277L196.043 412.213L195.974 412.154C139.597 364.525 82.9123 317.316 25.9204 270.526L25.919 270.525C21.5415 266.938 18.7858 263.551 17.3206 259.836C15.8618 256.138 15.5967 251.896 16.5992 246.443Z" stroke="url(#paint2_linear_213_2091)" stroke-width="4"/>
</g>
<defs>
<linearGradient id="paint0_linear_213_2091" x1="210.75" y1="13" x2="210.75" y2="421.311" gradientUnits="userSpaceOnUse">
<stop stop-color="#10375B"/>
<stop offset="1" stop-color="#40F8FF"/>
</linearGradient>
<linearGradient id="paint1_linear_213_2091" x1="210.75" y1="13" x2="210.75" y2="421.311" gradientUnits="userSpaceOnUse">
<stop stop-color="#10375B"/>
<stop offset="1" stop-color="#40F8FF"/>
</linearGradient>
<linearGradient id="paint2_linear_213_2091" x1="210.75" y1="13" x2="210.75" y2="421.311" gradientUnits="userSpaceOnUse">
<stop stop-color="#10375B"/>
<stop offset="1" stop-color="#40F8FF"/>
</linearGradient>
</defs>
</svg>
