<svg width="420" height="434" viewBox="0 0 420 434" fill="none" xmlns="http://www.w3.org/2000/svg">
<path d="M58.488 0C54.7538 1.83514 51.4245 4.39652 48.6956 7.53375C45.9667 10.671 43.8933 14.3208 42.5969 18.269C28.179 94.6869 15.1001 171.327 1.17314 247.745C-1.05875 259.865 2.1998 267.485 11.8415 275.372C72.5191 325.099 132.869 375.272 192.892 425.89C197.502 430.556 203.626 433.431 210.167 434C216.707 433.431 222.831 430.556 227.442 425.89C287.197 375.153 347.443 324.98 408.18 275.372C417.777 267.485 421.035 259.865 418.848 247.745C404.877 171.327 391.842 94.6869 377.424 18.269C376.123 14.3169 374.043 10.6646 371.306 7.52715C368.569 4.38968 365.231 1.83042 361.489 0H58.488Z" fill="#40F8FF" fill-opacity="0.1"/>
<path d="M63.5504 7C59.941 8.77595 56.723 11.2547 54.0853 14.2907C51.4476 17.3268 49.4434 20.8589 48.1904 24.6797C34.2541 98.6324 21.6123 172.801 8.15065 246.754C5.99333 258.483 9.14301 265.856 18.4626 273.489C77.1127 321.612 135.446 370.166 193.464 419.152C197.92 423.667 203.839 426.45 210.161 427C216.483 426.45 222.403 423.667 226.859 419.152C284.617 370.051 342.85 321.497 401.558 273.489C410.834 265.856 413.984 258.483 411.87 246.754C398.365 172.801 385.766 98.6324 371.83 24.6797C370.572 20.8551 368.561 17.3206 365.916 14.2843C363.271 11.2481 360.044 8.77137 356.427 7H63.5504Z" fill="#40F8FF" fill-opacity="0.2"/>
<mask id="mask0_213_2017" style="mask-type:alpha" maskUnits="userSpaceOnUse" x="13" y="13" width="394" height="409">
<path d="M16.0992 246.443L16.0999 246.439C21.2263 218.26 26.2282 190.062 31.2304 161.861C38.9893 118.12 46.749 74.3742 54.9757 30.6886C56.1127 27.2741 57.9126 24.1171 60.2726 21.3991C62.5606 18.764 65.331 16.5923 68.4331 15H352.047C355.157 16.5886 357.935 18.759 360.23 21.395C362.597 24.113 364.403 27.2717 365.544 30.6893C373.564 73.2747 381.124 115.912 388.684 158.549C393.879 187.851 399.075 217.152 404.419 246.436C405.402 251.89 405.128 256.135 403.668 259.836C402.202 263.554 399.454 266.942 395.097 270.528C338.048 317.207 281.461 364.417 225.334 412.158L225.268 412.215L225.206 412.277C221.251 416.287 216.01 418.774 210.407 419.303C204.803 418.774 199.562 416.287 195.607 412.277L195.543 412.213L195.474 412.154C139.097 364.525 82.4123 317.316 25.4204 270.526L25.419 270.525C21.0415 266.938 18.2858 263.551 16.8206 259.836C15.3618 256.138 15.0967 251.896 16.0992 246.443Z" fill="#40F8FF" stroke="url(#paint0_linear_213_2017)" stroke-width="4"/>
</mask>
<g mask="url(#mask0_213_2017)">
<path d="M16.0992 246.443L16.0999 246.439C21.2263 218.26 26.2282 190.062 31.2304 161.861C38.9893 118.12 46.749 74.3742 54.9757 30.6886C56.1127 27.2741 57.9126 24.1171 60.2726 21.3991C62.5606 18.764 65.331 16.5923 68.4331 15H352.047C355.157 16.5886 357.935 18.759 360.23 21.395C362.597 24.113 364.403 27.2717 365.544 30.6893C373.564 73.2747 381.124 115.912 388.684 158.549C393.879 187.851 399.075 217.152 404.419 246.436C405.402 251.89 405.128 256.135 403.668 259.836C402.202 263.554 399.454 266.942 395.097 270.528C338.048 317.207 281.461 364.417 225.334 412.158L225.268 412.215L225.206 412.277C221.251 416.287 216.01 418.774 210.407 419.303C204.803 418.774 199.562 416.287 195.607 412.277L195.543 412.213L195.474 412.154C139.097 364.525 82.4123 317.316 25.4204 270.526L25.419 270.525C21.0415 266.938 18.2858 263.551 16.8206 259.836C15.3618 256.138 15.0967 251.896 16.0992 246.443Z" fill="#40F8FF" stroke="url(#paint1_linear_213_2017)" stroke-width="4"/>

<path d="M15.7671 495.491C26.0335 489.495 41.9521 491.818 55.1995 492.653C66.6556 493.373 78.1346 494.362 89.5729 495.508C149.783 501.358 202.91 452.883 199.384 392.495C199.264 390.614 199.098 388.754 198.888 386.858C197.723 376.21 194.932 365.804 190.614 356.001C186.167 346.256 180.251 337.252 173.072 329.301C171.796 327.884 170.512 326.511 169.187 325.171C126.433 282.378 54.9051 289.829 19.2278 338.674C12.4768 347.978 5.60428 357.198 -1.4944 366.255C-9.63919 376.671 -18.5109 390.183 -29.8375 393.816C-67.388 405.969 -105.981 415.333 -144.614 423.769C-157.049 426.452 -166.491 426.623 -173.069 424.118L-102.121 582.296C-99.6169 575.717 -93.2098 568.78 -82.9368 561.278C-50.9394 538.047 -18.2811 515.453 15.7671 495.491Z" stroke="#10375B" stroke-width="0.6" stroke-miterlimit="10"/>
<path d="M19.4989 493.818C29.7538 487.826 45.6839 490.144 58.9313 490.98C70.3874 491.7 81.8548 492.694 93.2931 493.839C153.503 499.69 206.63 451.215 203.105 390.827C202.985 388.946 202.819 387.086 202.608 385.19C201.449 374.541 198.659 364.134 194.334 354.333C189.893 344.585 183.976 335.58 176.792 327.633C175.528 326.21 174.232 324.843 172.908 323.503C130.153 280.71 58.6253 288.161 22.948 337.006C16.197 346.31 9.32451 355.53 2.23741 364.581C-5.90738 374.998 -14.7907 388.515 -26.1057 392.143C-63.6678 404.301 -102.249 413.66 -140.894 422.101C-153.317 424.778 -162.77 424.955 -169.349 422.45L-98.4012 580.628C-95.8967 574.049 -89.478 567.107 -79.2166 559.61C-47.2655 536.4 -14.5608 513.784 19.4989 493.818Z" stroke="#10375B" stroke-width="0.6" stroke-miterlimit="10"/>
<path d="M23.2161 492.15C33.4826 486.153 49.4012 488.477 62.6485 489.312C74.1047 490.032 85.5721 491.026 97.0104 492.172C157.22 498.022 210.359 449.542 206.822 389.159C206.702 387.278 206.536 385.418 206.326 383.522C205.16 372.875 202.37 362.468 198.052 352.665C193.604 342.921 187.688 333.916 180.509 325.965C179.245 324.543 177.95 323.175 176.625 321.835C133.882 279.037 62.3426 286.493 26.6653 335.338C19.9143 344.642 13.0418 353.862 5.95469 362.914C-2.1901 373.33 -11.0618 386.842 -22.3884 390.475C-59.9505 402.633 -98.5317 411.992 -137.177 420.433C-149.6 423.11 -159.042 423.282 -165.632 420.783L-94.6839 578.96C-92.1678 572.376 -85.7607 565.439 -75.4993 557.942C-43.4903 534.706 -10.8436 512.117 23.2161 492.15Z" stroke="#10375B" stroke-width="0.6" stroke-miterlimit="10"/>
<path d="M26.936 490.482C37.2025 484.485 53.1211 486.808 66.3684 487.644C77.8246 488.364 89.3036 489.352 100.742 490.498C160.952 496.348 214.079 447.873 210.553 387.485C210.433 385.605 210.267 383.745 210.057 381.849C208.892 371.201 206.101 360.794 201.783 350.992C197.336 341.247 191.42 332.242 184.241 324.292C182.965 322.874 181.681 321.502 180.356 320.162C137.602 277.369 66.074 284.82 30.3968 333.665C23.6457 342.969 16.7616 352.194 9.67454 361.245C1.52975 371.662 -7.34194 385.174 -18.6685 388.807C-56.2191 400.96 -94.8118 410.324 -133.445 418.759C-145.88 421.442 -155.322 421.614 -161.9 419.109L-90.9525 577.287C-88.448 570.708 -82.0408 563.771 -71.7679 556.268C-39.7705 533.038 -7.11212 510.443 26.936 490.482Z" stroke="#10375B" stroke-width="0.6" stroke-miterlimit="10"/>
<path d="M30.6542 488.814C40.9207 482.817 56.8973 485.114 70.0982 485.971C81.5544 486.691 93.0218 487.685 104.46 488.83C164.67 494.681 217.797 446.205 214.272 385.817C214.152 383.937 213.985 382.077 213.775 380.181C212.616 369.532 209.826 359.125 205.501 349.324C201.06 339.576 195.143 330.571 187.959 322.624C186.695 321.201 185.399 319.834 184.075 318.494C141.32 275.701 69.7923 283.152 34.115 331.997C27.364 341.301 20.4915 350.521 13.4044 359.572C5.25959 369.989 -3.62369 383.506 -14.9503 387.139C-52.5008 399.292 -91.0936 408.656 -129.727 417.092C-142.15 419.769 -151.603 419.946 -158.182 417.441L-87.2342 575.619C-84.7297 569.04 -78.311 562.098 -68.0496 554.6C-36.0522 531.37 -3.39388 508.775 30.6542 488.814Z" stroke="#10375B" stroke-width="0.6" stroke-miterlimit="10"/>
<path d="M34.3851 487.14C44.6516 481.144 60.5701 483.467 73.8175 484.303C85.2736 485.023 96.7411 486.016 108.179 487.162C168.389 493.013 221.516 444.537 217.991 384.149C217.871 382.269 217.705 380.409 217.495 378.513C216.335 367.864 213.545 357.456 209.221 347.656C204.779 337.908 198.862 328.902 191.678 320.956C190.414 319.533 189.119 318.166 187.794 316.826C145.04 274.033 73.5115 281.484 37.8343 330.329C31.0832 339.633 24.2107 348.853 17.1236 357.904C8.97881 368.321 0.107125 381.833 -11.2195 385.466C-48.7816 397.624 -87.3627 406.982 -126.008 415.423C-138.431 418.101 -147.873 418.272 -154.463 415.773L-83.515 573.951C-80.9989 567.367 -74.5917 560.429 -64.3303 552.932C-32.3214 529.697 0.325353 507.107 34.3851 487.14Z" stroke="#10375B" stroke-width="0.6" stroke-miterlimit="10"/>
<path d="M38.103 485.472C48.3695 479.476 64.2881 481.799 77.5354 482.634C88.9916 483.355 100.471 484.343 111.897 485.494C172.119 491.339 225.281 442.849 221.72 382.476C221.6 380.595 221.434 378.736 221.224 376.84C220.059 366.192 217.268 355.785 212.95 345.983C208.503 336.238 202.587 327.233 195.408 319.283C194.132 317.865 192.848 316.493 191.523 315.152C148.804 272.344 77.241 279.81 41.5522 328.661C34.8127 337.96 27.9055 347.195 20.83 356.241C12.6852 366.658 3.81348 380.17 -7.5131 383.803C-45.0753 395.961 -83.6564 405.32 -122.29 413.755C-134.724 416.438 -144.166 416.61 -150.756 414.11L-79.8086 572.288C-77.2925 565.704 -70.8854 558.767 -60.6124 551.264C-28.6035 528.029 4.04331 505.439 38.103 485.472Z" stroke="#10375B" stroke-width="0.6" stroke-miterlimit="10"/>
<path d="M41.8569 483.789C52.1234 477.792 68.042 480.116 81.3009 480.946C92.757 481.666 104.224 482.66 115.663 483.806C175.873 489.656 229 441.181 225.474 380.793C225.354 378.912 225.188 377.052 224.978 375.156C223.819 364.507 221.028 354.1 216.704 344.299C212.262 334.551 206.345 325.546 199.162 317.599C197.897 316.176 196.602 314.809 195.277 313.469C152.488 270.692 80.9601 278.142 45.2829 326.988C38.5319 336.292 31.6594 345.512 24.5723 354.563C16.4275 364.98 7.48626 378.523 -3.78239 382.13C-41.333 394.283 -79.9257 403.647 -118.559 412.082C-130.994 414.765 -140.436 414.937 -147.014 412.432L-76.0663 570.609C-73.5618 564.031 -67.1547 557.094 -56.8817 549.591C-24.8844 526.361 7.774 503.766 41.8569 483.789Z" stroke="#10375B" stroke-width="0.6" stroke-miterlimit="10"/>
<path d="M45.5526 482.131C55.8075 476.14 71.7376 478.458 84.985 479.293C96.4411 480.014 107.909 481.007 119.347 482.153C179.557 488.003 232.684 439.528 229.158 379.14C229.038 377.26 228.872 375.4 228.662 373.504C227.503 362.855 224.712 352.447 220.388 342.647C215.946 332.899 210.03 323.893 202.846 315.947C201.581 314.524 200.286 313.157 198.961 311.817C156.207 269.024 84.679 276.475 49.0018 325.32C42.2507 334.624 35.3782 343.844 28.2911 352.895C20.1463 363.312 11.2631 376.829 -0.0519399 380.457C-37.6141 392.615 -76.1953 401.973 -114.84 410.414C-127.263 413.092 -136.705 413.263 -143.295 410.764L-72.3475 568.942C-69.8314 562.358 -63.4243 555.42 -53.1629 547.923C-21.1539 524.688 11.4929 502.098 45.5526 482.131Z" stroke="#10375B" stroke-width="0.6" stroke-miterlimit="10"/>
<path d="M49.2719 480.463C59.5384 474.467 75.457 476.79 88.7043 477.625C100.16 478.345 111.639 479.334 123.066 480.485C183.288 486.33 236.415 437.855 232.889 377.467C232.758 375.591 232.603 373.726 232.393 371.83C231.221 361.184 228.431 350.778 224.119 340.973C219.666 331.232 213.75 322.228 206.577 314.273C205.301 312.856 204.006 311.488 202.692 310.143C159.938 267.35 88.4099 274.801 52.7211 323.651C45.9817 332.95 39.0976 342.175 32.0105 351.227C23.8657 361.643 14.994 375.155 3.6674 378.788C-33.8947 390.946 -72.4759 400.305 -111.121 408.746C-123.544 411.424 -132.986 411.595 -139.576 409.096L-68.6281 567.273C-66.112 560.689 -59.7049 553.752 -49.4435 546.255C-17.4345 523.019 15.2122 500.43 49.2719 480.463Z" stroke="#10375B" stroke-width="0.6" stroke-miterlimit="10"/>
<path d="M52.9926 478.794C63.2591 472.798 79.1777 475.121 92.4366 475.951C103.893 476.671 115.36 477.665 126.798 478.811C187.008 484.661 240.136 436.186 236.61 375.798C236.49 373.917 236.324 372.057 236.114 370.162C234.948 359.514 232.158 349.107 227.84 339.304C223.393 329.56 217.476 320.555 210.297 312.605C209.021 311.187 207.738 309.814 206.413 308.474C163.659 265.681 92.1075 273.143 56.4534 321.977C49.7024 331.282 42.8299 340.501 35.7428 349.553C27.5864 359.974 18.7147 373.486 7.3881 377.119C-30.1625 389.272 -68.7552 398.636 -107.389 407.072C-119.823 409.755 -129.265 409.926 -135.844 407.422L-64.8958 565.599C-62.3913 559.021 -55.9842 552.083 -45.7112 544.581C-13.6675 521.33 18.9445 498.756 52.9926 478.794Z" stroke="#10375B" stroke-width="0.6" stroke-miterlimit="10"/>
<path d="M56.723 477.122C66.9779 471.13 82.9081 473.448 96.1554 474.284C107.612 475.004 119.079 475.998 130.517 477.143C190.727 482.994 243.82 434.534 240.375 374.11C240.255 372.229 240.089 370.369 239.879 368.473C238.72 357.824 235.929 347.417 231.605 337.616C227.163 327.868 221.246 318.863 214.063 310.916C212.798 309.493 211.503 308.126 210.178 306.786C167.343 264.03 95.8495 271.465 60.1722 320.31C53.4212 329.614 46.5487 338.834 39.4616 347.885C31.3168 358.302 22.4335 371.819 11.1185 375.447C-26.4436 387.605 -65.0248 396.964 -103.67 405.405C-116.093 408.082 -125.546 408.259 -132.125 405.754L-61.177 563.932C-58.6725 557.353 -52.2538 550.411 -41.9924 542.913C-9.98343 519.678 22.6633 497.088 56.723 477.122Z" stroke="#10375B" stroke-width="0.6" stroke-miterlimit="10"/>
<path d="M60.3939 475.474C70.6604 469.478 86.579 471.801 99.8263 472.636C111.282 473.357 122.75 474.35 134.188 475.496C194.398 481.346 247.537 432.866 244 372.483C243.88 370.602 243.714 368.743 243.503 366.847C242.338 356.199 239.547 345.792 235.229 335.99C230.782 326.245 224.866 317.24 217.687 309.29C216.423 307.867 215.127 306.5 213.803 305.159C171.106 262.341 99.5666 269.797 63.8894 318.642C57.1384 327.946 50.2659 337.166 43.1788 346.217C35.034 356.634 26.1623 370.146 14.8357 373.779C-22.7264 385.937 -61.3076 395.295 -99.9525 403.736C-112.376 406.414 -121.818 406.585 -128.408 404.086L-57.4598 562.264C-54.9437 555.68 -48.5366 548.742 -38.2752 541.245C-6.26625 518.01 26.3805 495.42 60.3939 475.474Z" stroke="#10375B" stroke-width="0.6" stroke-miterlimit="10"/>
<path d="M64.1591 473.786C74.4256 467.789 90.3442 470.113 103.592 470.948C115.048 471.668 126.527 472.657 137.965 473.802C198.175 479.653 251.302 431.178 247.776 370.789C247.657 368.909 247.49 367.049 247.28 365.153C246.115 354.505 243.325 344.099 239.006 334.296C234.559 324.551 228.643 315.546 221.464 307.596C220.188 306.179 218.904 304.806 217.58 303.466C174.825 260.673 103.297 268.124 67.6199 316.969C60.8689 326.273 53.9848 335.498 46.8977 344.55C38.7529 354.966 29.8812 368.478 18.5546 372.111C-18.9959 384.264 -57.5887 393.628 -96.222 402.064C-108.657 404.746 -118.099 404.918 -124.677 402.413L-53.7293 560.591C-51.2248 554.012 -44.8177 547.075 -34.5447 539.573C-2.54733 516.342 30.111 493.747 64.1591 473.786Z" stroke="#10375B" stroke-width="0.6" stroke-miterlimit="10"/>
<path d="M67.8794 472.117C78.1459 466.12 94.1224 468.418 107.323 469.274C118.78 469.994 130.247 470.988 141.685 472.134C201.895 477.984 255.022 429.509 251.497 369.121C251.377 367.24 251.211 365.38 251 363.484C249.841 352.835 247.051 342.428 242.727 332.627C238.285 322.879 232.368 313.874 225.184 305.927C223.92 304.504 222.625 303.137 221.3 301.797C178.545 259.004 107.017 266.455 71.3401 315.3C64.5891 324.604 57.7166 333.824 50.6295 342.875C42.4847 353.292 33.5435 366.835 22.2748 370.442C-15.2757 382.595 -53.8685 391.959 -92.5018 400.395C-104.925 403.072 -114.378 403.249 -120.957 400.744L-50.0091 558.922C-47.5046 552.343 -41.0859 545.401 -30.8245 537.904C1.17288 514.673 33.8312 492.079 67.8794 472.117Z" stroke="#10375B" stroke-width="0.6" stroke-miterlimit="10"/>
<path d="M71.6087 470.444C81.8752 464.447 97.7938 466.771 111.041 467.606C122.497 468.326 133.965 469.32 145.403 470.466C205.613 476.316 258.752 427.836 255.214 367.453C255.095 365.572 254.928 363.712 254.718 361.817C253.559 351.167 250.768 340.76 246.444 330.959C242.003 321.211 236.086 312.206 228.902 304.26C227.638 302.837 226.342 301.469 225.018 300.129C182.275 257.331 110.735 264.787 75.0579 313.632C68.3069 322.936 61.4344 332.156 54.3473 341.208C46.2025 351.624 37.3308 365.136 26.0042 368.769C-11.558 380.927 -50.1391 390.286 -88.784 398.727C-101.207 401.405 -110.649 401.576 -117.239 399.077L-46.2913 557.254C-43.7752 550.67 -37.3681 543.733 -27.1067 536.236C4.86749 513.016 37.549 490.411 71.6087 470.444Z" stroke="#10375B" stroke-width="0.6" stroke-miterlimit="10"/>
<path d="M75.3292 468.775C85.5957 462.779 101.514 465.102 114.762 465.938C126.218 466.658 137.697 467.646 149.123 468.797C209.345 474.642 262.472 426.167 258.912 365.795C258.792 363.914 258.626 362.054 258.415 360.158C257.25 349.51 254.46 339.104 250.142 329.301C245.694 319.556 239.778 310.552 232.599 302.601C231.323 301.184 230.04 299.811 228.715 298.471C185.995 255.663 114.467 263.113 78.7783 311.964C72.0389 321.263 65.1548 330.488 58.0677 339.539C49.9229 349.956 41.0512 363.468 29.7247 367.101C-7.8375 379.259 -46.4187 388.617 -85.052 397.053C-97.4867 399.736 -106.929 399.907 -113.507 397.403L-42.5593 555.58C-40.0548 549.002 -33.6477 542.064 -23.3747 534.562C8.62269 511.332 41.2926 488.732 75.3292 468.775Z" stroke="#10375B" stroke-width="0.6" stroke-miterlimit="10"/>
<path d="M79.0483 467.108C89.3148 461.111 105.233 463.434 118.492 464.264C129.948 464.985 141.416 465.978 152.854 467.124C213.064 472.975 266.191 424.499 262.666 364.111C262.546 362.231 262.38 360.371 262.169 358.475C261.01 347.826 258.22 337.418 253.895 327.618C249.454 317.87 243.537 308.864 236.353 300.918C235.089 299.495 233.793 298.128 232.469 296.788C189.714 253.995 118.186 261.446 82.5091 310.291C75.758 319.595 68.8855 328.815 61.7984 337.866C53.6536 348.283 44.7704 361.8 33.4438 365.433C-4.10678 377.586 -42.6995 386.95 -81.3328 395.385C-93.756 398.063 -103.209 398.24 -109.788 395.735L-38.8401 553.913C-36.3356 547.334 -29.9169 540.391 -19.6555 532.894C12.3418 509.664 45.0002 487.069 79.0483 467.108Z" stroke="#10375B" stroke-width="0.6" stroke-miterlimit="10"/>
<path d="M82.7782 465.435C93.0331 459.443 108.963 461.761 122.211 462.597C133.667 463.317 145.134 464.311 156.572 465.456C216.782 471.307 269.91 422.832 266.384 362.443C266.264 360.563 266.098 358.703 265.888 356.807C264.728 346.158 261.938 335.751 257.614 325.95C253.172 316.202 247.255 307.197 240.071 299.25C238.807 297.827 237.512 296.46 236.187 295.12C193.433 252.327 121.905 259.778 86.2273 308.623C79.4763 317.927 72.6038 327.147 65.5167 336.198C57.3719 346.615 48.4886 360.132 37.1736 363.76C-0.3885 375.918 -38.9697 385.277 -77.6146 393.718C-90.0377 396.395 -99.4796 396.567 -106.07 394.067L-35.1219 552.245C-32.6058 545.661 -26.1987 538.724 -15.9373 531.226C16.0717 507.991 48.7185 485.401 82.7782 465.435Z" stroke="#10375B" stroke-width="0.6" stroke-miterlimit="10"/>
<path d="M86.4975 463.766C96.764 457.77 112.683 460.093 125.93 460.928C137.386 461.649 148.865 462.637 160.292 463.788C220.513 469.633 273.641 421.158 270.115 360.77C269.995 358.889 269.829 357.029 269.619 355.134C268.447 344.487 265.657 334.081 261.345 324.277C256.892 314.535 250.976 305.531 243.802 297.577C242.526 296.159 241.243 294.786 239.918 293.446C197.164 250.653 125.636 258.104 89.9467 306.954C83.2073 316.254 76.3232 325.478 69.2361 334.53C61.0913 344.947 52.2196 358.458 40.893 362.092C3.33088 374.25 -35.2503 383.608 -73.8836 392.044C-86.3183 394.727 -95.7602 394.898 -102.35 392.399L-31.4025 550.576C-28.8864 543.993 -22.4793 537.055 -12.2063 529.553C19.7911 506.322 52.4378 483.733 86.4975 463.766Z" stroke="#10375B" stroke-width="0.6" stroke-miterlimit="10"/>
<path d="M90.2153 462.098C100.482 456.102 116.4 458.425 129.659 459.255C141.115 459.976 152.583 460.969 164.021 462.115C224.231 467.965 277.358 419.49 273.833 359.102C273.713 357.221 273.547 355.362 273.336 353.466C272.177 342.817 269.387 332.409 265.062 322.609C260.621 312.861 254.704 303.855 247.52 295.909C246.244 294.491 244.96 293.119 243.636 291.778C200.881 248.986 129.353 256.436 93.6761 305.281C86.925 314.586 80.0409 323.811 72.9654 332.857C64.8206 343.273 55.9374 356.791 44.6108 360.424C7.06022 372.577 -31.5325 381.94 -70.1659 390.376C-82.6006 393.059 -92.0425 393.23 -98.621 390.726L-27.6732 548.903C-25.1687 542.325 -18.7615 535.387 -8.48856 527.885C23.5088 504.655 56.1672 482.06 90.2153 462.098Z" stroke="#10375B" stroke-width="0.6" stroke-miterlimit="10"/>
<path d="M93.993 460.404C104.248 454.413 120.178 456.731 133.425 457.566C144.882 458.287 156.349 459.28 167.787 460.426C227.997 466.276 281.124 417.801 277.599 357.413C277.479 355.532 277.313 353.673 277.102 351.777C275.943 341.128 273.153 330.72 268.829 320.92C264.387 311.172 258.47 302.166 251.286 294.22C250.022 292.797 248.727 291.43 247.402 290.089C204.601 247.317 133.073 254.768 97.419 303.603C90.668 312.907 83.7955 322.127 76.7084 331.178C68.5636 341.595 59.6224 355.138 48.3653 358.74C10.8032 370.898 -27.778 380.257 -66.4229 388.698C-78.846 391.375 -88.2995 391.552 -94.8781 389.047L-23.9302 547.225C-21.4257 540.646 -15.007 533.704 -4.7456 526.207C27.2402 502.981 59.829 480.418 93.993 460.404Z" stroke="#10375B" stroke-width="0.6" stroke-miterlimit="10"/>
<path d="M97.6649 458.757C107.931 452.761 123.85 455.084 137.097 455.919C148.553 456.64 160.021 457.633 171.459 458.779C231.669 464.629 284.808 416.149 281.282 355.761C281.151 353.886 280.996 352.021 280.774 350.13C279.609 339.482 276.818 329.076 272.5 319.273C268.053 309.528 262.137 300.523 254.958 292.573C253.694 291.15 252.398 289.783 251.085 288.437C208.331 245.645 136.791 253.101 101.114 301.946C94.363 311.25 87.4905 320.47 80.4034 329.521C72.2586 339.938 63.3869 353.45 52.0604 357.083C14.4982 369.241 -24.083 378.599 -62.7279 387.04C-75.151 389.718 -84.5929 389.889 -91.183 387.39L-20.2352 545.568C-17.7191 538.984 -11.3119 532.046 -1.05057 524.549C30.9584 501.313 63.6052 478.724 97.6649 458.757Z" stroke="#10375B" stroke-width="0.6" stroke-miterlimit="10"/>
<path d="M101.384 457.089C111.651 451.092 127.569 453.416 140.817 454.251C152.273 454.971 163.752 455.96 175.19 457.106C235.4 462.956 288.527 414.481 285.002 354.093C284.882 352.212 284.715 350.352 284.505 348.456C283.34 337.808 280.55 327.402 276.231 317.599C271.784 307.854 265.868 298.85 258.689 290.899C257.413 289.482 256.129 288.109 254.805 286.769C212.05 243.976 140.522 251.427 104.845 300.272C98.094 309.576 91.2215 318.796 84.1228 327.853C75.978 338.269 67.1063 351.781 55.7797 355.414C18.2292 367.567 -20.3636 376.931 -58.9969 385.367C-71.4316 388.05 -80.8735 388.221 -87.4521 385.716L-16.5042 543.894C-13.9997 537.315 -7.59258 530.378 2.68039 522.876C34.6778 499.645 67.3361 477.051 101.384 457.089Z" stroke="#10375B" stroke-width="0.6" stroke-miterlimit="10"/>
<path d="M105.114 455.416C115.369 449.425 131.299 451.743 144.546 452.578C156.002 453.298 167.47 454.292 178.908 455.438C239.118 461.288 292.245 412.813 288.719 352.425C288.599 350.544 288.433 348.684 288.223 346.789C287.064 336.139 284.273 325.732 279.949 315.931C275.507 306.184 269.591 297.178 262.407 289.232C261.142 287.809 259.847 286.441 258.522 285.101C215.768 242.308 144.24 249.759 108.563 298.604C101.812 307.909 94.9392 317.128 87.8522 326.18C79.7074 336.596 70.8241 350.113 59.5091 353.741C21.9469 365.899 -16.6342 375.258 -55.2791 383.699C-67.7023 386.377 -77.1557 386.553 -83.7343 384.049L-12.7864 542.226C-10.2819 535.648 -3.86322 528.705 6.39816 521.208C38.4071 497.972 71.0539 475.383 105.114 455.416Z" stroke="#10375B" stroke-width="0.6" stroke-miterlimit="10"/>
<path d="M108.834 453.748C119.1 447.751 135.019 450.075 148.266 450.91C159.722 451.63 171.19 452.624 182.628 453.77C242.838 459.62 295.954 411.15 292.44 350.757C292.32 348.876 292.153 347.016 291.943 345.12C290.778 334.473 287.987 324.066 283.669 314.263C279.222 304.519 273.306 295.514 266.127 287.563C264.863 286.141 263.567 284.773 262.243 283.433C219.477 240.645 147.96 248.091 112.283 296.936C105.532 306.24 98.6595 315.46 91.5724 324.512C83.4276 334.928 74.5559 348.44 63.2293 352.073C25.6672 364.231 -12.914 373.59 -51.5589 382.031C-63.982 384.708 -73.4239 384.88 -80.0141 382.381L-9.06623 540.558C-6.55014 533.974 -0.142967 527.037 10.1184 519.54C42.1274 496.304 74.7741 473.715 108.834 453.748Z" stroke="#10375B" stroke-width="0.6" stroke-miterlimit="10"/>
<path d="M112.529 452.09C122.795 446.093 138.714 448.417 151.961 449.252C163.417 449.972 174.896 450.961 186.335 452.107C246.545 457.957 299.672 409.482 296.146 349.094C296.026 347.213 295.86 345.353 295.65 343.457C294.485 332.809 291.694 322.403 287.376 312.6C282.929 302.855 277.012 293.851 269.834 285.9C268.558 284.483 267.274 283.11 265.949 281.77C223.218 238.967 151.69 246.418 115.955 295.289C109.204 304.593 102.32 313.818 95.2325 322.869C87.0878 333.286 78.2161 346.798 66.8895 350.431C29.3389 362.584 -9.25385 371.948 -47.8872 380.383C-60.3219 383.066 -69.7638 383.238 -76.3423 380.733L-5.39447 538.911C-2.88996 532.332 3.51717 525.395 13.7901 517.892C45.8454 494.636 78.5038 472.041 112.529 452.09Z" stroke="#10375B" stroke-width="0.6" stroke-miterlimit="10"/>
<path d="M116.271 450.412C126.538 444.415 142.514 446.712 155.715 447.569C167.172 448.289 178.639 449.283 190.077 450.428C250.287 456.279 303.414 407.804 299.889 347.415C299.769 345.535 299.603 343.675 299.393 341.779C298.233 331.13 295.443 320.723 291.119 310.922C286.677 301.174 280.76 292.169 273.576 284.222C272.312 282.799 271.017 281.432 269.692 280.092C226.938 237.299 155.409 244.75 119.732 293.595C112.981 302.899 106.109 312.119 99.0216 321.17C90.8768 331.587 81.9356 345.13 70.6669 348.737C33.1163 360.89 -5.47638 370.254 -44.1097 378.69C-56.5328 381.367 -65.9863 381.544 -72.5649 379.039L-1.617 537.217C0.887503 530.638 7.30622 523.696 17.5676 516.198C49.565 492.968 82.2233 470.373 116.271 450.412Z" stroke="#10375B" stroke-width="0.6" stroke-miterlimit="10"/>
<path d="M120.003 448.738C130.258 442.746 146.188 445.064 159.436 445.9C170.892 446.62 182.359 447.614 193.798 448.759C254.007 454.61 307.135 406.135 303.609 345.746C303.489 343.866 303.323 342.006 303.113 340.11C301.954 329.461 299.163 319.054 294.839 309.253C290.397 299.505 284.48 290.5 277.297 282.553C276.032 281.13 274.737 279.763 273.412 278.423C230.658 235.63 159.13 243.081 123.452 291.926C116.701 301.23 109.829 310.45 102.742 319.501C94.597 329.918 85.7137 343.435 74.3987 347.063C36.8366 359.221 -1.74459 368.58 -40.3895 377.021C-52.8126 379.698 -62.2545 379.87 -68.8447 377.37L2.10321 535.548C4.6193 528.964 11.0264 522.027 21.2878 514.53C53.2968 491.294 85.9436 468.704 120.003 448.738Z" stroke="#10375B" stroke-width="0.6" stroke-miterlimit="10"/>
<path d="M123.72 447.071C133.987 441.074 149.905 443.397 163.153 444.233C174.609 444.953 186.088 445.941 197.514 447.092C257.736 452.937 310.863 404.462 307.337 344.074C307.218 342.194 307.051 340.334 306.841 338.438C305.676 327.79 302.886 317.383 298.567 307.581C294.12 297.836 288.204 288.831 281.025 280.881C279.749 279.463 278.465 278.091 277.141 276.751C234.386 233.958 162.858 241.409 127.169 290.259C120.43 299.558 113.546 308.783 106.459 317.834C98.314 328.251 89.4423 341.763 78.1157 345.396C40.5536 357.554 1.97236 366.913 -36.6609 375.348C-49.0957 378.031 -58.5376 378.203 -65.1277 375.703L5.82016 533.881C8.33625 527.297 14.7434 520.36 25.0164 512.857C57.0021 489.632 89.6605 467.037 123.72 447.071Z" stroke="#10375B" stroke-width="0.6" stroke-miterlimit="10"/>
<path d="M126.98 447.973C137.246 441.977 153.17 444.312 166.412 445.135C177.873 445.867 189.352 446.856 200.779 448.007C260.989 453.857 314.128 405.377 310.602 344.989C310.471 343.113 310.311 341.237 310.094 339.358C308.929 328.71 306.138 318.303 301.82 308.501C297.37 298.752 291.452 289.744 284.273 281.789C283.014 280.378 281.718 279.01 280.405 277.665C237.641 234.849 166.096 242.293 130.424 291.15C123.684 300.449 116.835 309.659 109.759 318.705C101.615 329.121 92.7429 342.633 81.4163 346.266C43.849 358.413 5.273 367.783 -33.3719 376.224C-45.795 378.902 -55.2369 379.073 -61.8271 376.574L9.1208 534.751C11.6369 528.168 18.044 521.23 28.3054 513.733C60.2628 490.506 92.9148 467.929 126.98 447.973Z" stroke="#10375B" stroke-width="0.6" stroke-miterlimit="10"/>
<path d="M130.222 448.844C140.488 442.847 156.412 445.182 169.654 446.006C181.115 446.738 192.583 447.731 204.021 448.877C264.231 454.727 317.37 406.247 313.832 345.864C313.713 343.983 313.541 342.112 313.336 340.228C312.17 329.576 309.378 319.165 305.057 309.359C300.608 299.615 294.692 290.611 287.515 282.659C286.256 281.248 284.96 279.881 283.636 278.54C240.928 235.727 169.348 243.187 133.676 292.043C126.925 301.348 120.014 310.543 112.954 319.624C104.809 330.041 95.932 343.541 84.6106 347.186C47.0433 359.332 8.46732 368.703 -30.1776 377.143C-42.6007 379.821 -52.0426 379.992 -58.6327 377.493L12.3151 535.671C14.8312 529.087 21.2383 522.149 31.4997 514.652C63.5151 491.4 96.167 468.822 130.222 448.844Z" stroke="#10375B" stroke-width="0.6" stroke-miterlimit="10"/>
<path d="M133.477 449.738C143.743 443.741 159.667 446.076 172.909 446.9C184.371 447.631 195.838 448.625 207.276 449.771C267.481 455.61 320.614 407.146 317.088 346.758C316.968 344.877 316.797 343.006 316.586 341.11C315.429 330.461 312.639 320.053 308.313 310.253C303.869 300.506 297.952 291.501 290.77 283.553C289.506 282.13 288.216 280.774 286.891 279.434C244.125 236.647 172.603 244.081 136.931 292.937C130.18 302.242 123.308 311.461 116.215 320.501C108.076 330.929 99.199 344.43 87.8724 348.063C50.3103 360.221 11.7291 369.58 -26.9106 378.032C-39.3337 380.71 -48.7756 380.881 -55.3658 378.382L15.5821 536.559C18.0982 529.976 24.5053 523.038 34.7667 515.541C66.7705 492.294 99.4172 469.704 133.477 449.738Z" stroke="#10375B" stroke-width="0.6" stroke-miterlimit="10"/>
<path d="M136.73 450.629C146.985 444.638 162.92 446.968 176.162 447.791C187.624 448.523 199.091 449.517 210.524 450.651C270.734 456.502 323.867 408.038 320.341 347.65C320.216 345.758 320.05 343.898 319.839 342.002C318.681 331.353 315.891 320.945 311.566 311.145C307.123 301.398 301.206 292.392 294.023 284.445C292.759 283.022 291.469 281.666 290.139 280.315C247.39 237.533 175.856 244.973 140.184 293.829C133.399 303.149 126.561 312.353 119.469 321.393C111.329 331.821 102.383 345.353 91.1255 348.955C53.5633 361.113 14.9821 370.472 -23.6628 378.912C-36.0807 381.602 -45.5278 381.761 -52.1127 379.274L18.8351 537.451C21.346 530.856 27.7532 523.919 38.0197 516.433C70.0235 493.186 102.67 470.596 136.73 450.629Z" stroke="#10375B" stroke-width="0.6" stroke-miterlimit="10"/>
<path d="M139.982 451.523C150.237 445.532 166.167 447.849 179.415 448.685C190.871 449.405 202.338 450.399 213.776 451.545C273.986 457.395 327.114 408.92 323.593 348.543C323.468 346.651 323.302 344.791 323.092 342.895C321.934 332.246 319.143 321.838 314.818 312.038C310.374 302.282 304.454 293.269 297.265 285.315C296.001 283.892 294.711 282.537 293.381 281.185C250.642 238.427 179.109 245.866 143.437 294.723C136.686 304.027 129.813 313.247 122.721 322.287C114.581 332.715 105.682 346.197 94.3881 349.871C56.8156 362.006 18.2344 371.365 -20.4105 379.806C-32.8284 382.495 -42.2871 382.66 -48.8657 380.156L22.0874 538.345C24.5867 531.754 31.0054 524.812 41.272 517.326C73.2757 494.079 105.923 471.49 139.982 451.523Z" stroke="#10375B" stroke-width="0.6" stroke-miterlimit="10"/>
<path d="M143.224 452.419C153.491 446.423 169.467 448.72 182.668 449.576C194.124 450.297 205.592 451.29 217.03 452.436C277.24 458.286 330.367 409.811 326.847 349.435C326.722 347.542 326.555 345.683 326.345 343.787C325.187 333.138 322.396 322.73 318.071 312.93C313.629 303.182 307.712 294.177 300.529 286.23C299.265 284.807 297.975 283.451 296.645 282.099C253.911 239.353 182.362 246.757 146.713 295.604C139.957 304.896 133.085 314.116 125.997 323.168C117.858 333.596 108.912 347.127 97.6428 350.734C60.0112 362.924 21.4764 372.262 -17.1569 380.697C-29.5749 383.386 -39.0335 383.552 -45.6121 381.047L25.3357 539.224C27.8403 532.646 34.259 525.703 44.5255 518.218C76.5177 494.976 109.118 472.407 143.224 452.419Z" stroke="#10375B" stroke-width="0.6" stroke-miterlimit="10"/>
<path d="M146.477 453.313C156.743 447.316 172.72 449.613 185.921 450.47C197.377 451.19 208.845 452.184 220.283 453.329C280.493 459.18 333.62 410.705 330.099 350.328C329.974 348.436 329.808 346.576 329.598 344.68C328.439 334.031 325.648 323.624 321.324 313.823C316.881 304.076 310.965 295.07 303.782 287.123C302.517 285.7 301.222 284.333 299.897 282.993C257.143 240.2 185.641 247.709 149.908 296.523C143.152 305.816 136.279 315.035 129.192 324.087C121.024 334.514 112.199 348.005 100.872 351.638C63.3219 363.791 24.7291 373.155 -13.9042 381.591C-26.3273 384.268 -35.7808 384.445 -42.3594 381.94L28.5885 540.118C31.093 533.539 37.5117 526.597 47.7783 519.111C79.7705 495.869 112.429 473.274 146.477 453.313Z" stroke="#10375B" stroke-width="0.6" stroke-miterlimit="10"/>
<path d="M149.666 454.221C159.933 448.224 175.857 450.559 189.11 451.377C200.572 452.109 212.039 453.103 223.478 454.249C283.687 460.099 336.815 411.624 333.289 351.236C333.169 349.355 332.998 347.484 332.793 345.6C331.634 334.95 328.843 324.543 324.519 314.743C320.074 304.991 314.156 295.982 306.971 288.031C305.7 286.625 304.417 285.252 303.092 283.912C260.396 241.093 188.862 248.533 153.19 297.389C146.439 306.694 139.567 315.913 132.48 324.965C124.335 335.381 115.452 348.898 104.125 352.532C66.5694 364.673 27.9818 374.048 -10.6515 382.484C-23.0862 385.167 -32.5281 385.338 -39.1067 382.834L31.8411 541.011C34.3456 534.433 40.7528 527.495 51.0258 519.993C83.0232 496.762 115.681 474.168 149.666 454.221Z" stroke="#10375B" stroke-width="0.6" stroke-miterlimit="10"/>
<path d="M152.98 455.085C163.246 449.089 179.17 451.424 192.412 452.247C203.873 452.979 215.352 453.968 226.791 455.114C287 460.964 340.128 412.489 336.602 352.101C336.482 350.22 336.311 348.349 336.106 346.464C334.94 335.812 332.147 325.402 327.827 315.596C323.378 305.852 317.462 296.847 310.284 288.896C309.014 287.49 307.73 286.117 306.405 284.777C263.635 241.949 192.118 249.423 156.446 298.28C149.694 307.584 142.822 316.804 135.723 325.861C127.578 336.277 118.702 349.778 107.38 353.422C69.8245 365.564 31.2369 374.939 -7.39643 383.375C-19.8311 386.058 -29.273 386.229 -35.8516 383.724L35.0963 541.902C37.6216 535.37 43.9871 528.34 54.3364 520.914C86.273 497.642 118.937 475.058 152.98 455.085Z" stroke="#10375B" stroke-width="0.6" stroke-miterlimit="10"/>
<path d="M156.231 455.979C166.498 449.982 182.422 452.317 195.664 453.141C207.125 453.873 218.604 454.861 230.042 456.007C290.252 461.857 343.379 413.382 339.854 352.994C339.734 351.113 339.563 349.242 339.358 347.358C338.191 336.706 335.399 326.295 331.078 316.489C326.629 306.745 320.713 297.741 313.536 289.789C312.26 288.371 310.982 287.01 309.657 285.67C266.903 242.878 195.364 250.305 159.697 299.173C152.946 308.478 146.062 317.702 138.975 326.754C130.83 337.171 121.953 350.671 110.632 354.316C73.0762 366.457 34.4835 375.821 -4.14704 384.325C-16.5818 387.008 -26.0236 387.179 -32.6022 384.675L38.3249 542.806C40.8294 536.227 47.2365 529.29 57.5095 521.787C89.5248 498.535 122.183 475.94 156.231 455.979Z" stroke="#10375B" stroke-width="0.6" stroke-miterlimit="10"/>
<path d="M159.486 456.872C169.752 450.875 185.676 453.21 198.918 454.034C210.38 454.766 221.859 455.754 233.28 456.894C293.502 462.739 346.634 414.275 343.108 353.887C342.989 352.006 342.817 350.135 342.607 348.239C341.443 337.591 338.652 327.184 334.333 317.382C329.884 307.638 323.968 298.634 316.791 290.682C315.515 289.265 314.236 287.904 312.906 286.552C270.157 243.771 198.624 251.21 162.94 300.072C156.201 309.371 149.317 318.596 142.224 327.636C134.085 338.064 125.208 351.564 113.881 355.197C76.3193 367.355 37.7381 376.714 -0.895175 385.15C-13.3247 387.844 -22.7718 388.004 -29.3567 385.516L41.5911 543.694C44.102 537.098 50.5143 530.172 60.7873 522.67C92.8055 499.486 125.426 476.839 159.486 456.872Z" stroke="#10375B" stroke-width="0.6" stroke-miterlimit="10"/>
<path d="M162.738 457.765C173.005 451.768 188.923 454.091 202.171 454.927C213.627 455.647 225.111 456.647 236.533 457.786C296.742 463.637 349.886 415.168 346.361 354.78C346.224 352.893 346.07 351.028 345.848 349.137C344.683 338.489 341.893 328.083 337.574 318.28C333.125 308.536 327.209 299.531 320.032 291.58C318.767 290.157 317.477 288.802 316.159 287.445C273.41 244.664 201.865 252.108 166.193 300.965C159.453 310.264 152.569 319.489 145.477 328.528C137.337 338.957 128.46 352.457 117.134 356.09C79.5716 368.248 40.9904 377.607 2.34554 386.048C-10.0724 388.737 -19.5195 388.897 -26.1096 386.397L44.8694 544.644C47.3803 538.049 53.7874 531.112 64.054 523.626C96.0318 500.321 128.679 477.731 162.738 457.765Z" stroke="#10375B" stroke-width="0.6" stroke-miterlimit="10"/>
<path d="M165.992 458.657C176.258 452.66 192.177 454.983 205.424 455.819C216.88 456.539 228.348 457.533 239.786 458.678C299.996 464.529 353.135 416.048 349.603 355.677C349.478 353.785 349.311 351.925 349.101 350.029C347.936 339.381 345.146 328.974 340.827 319.172C336.379 309.428 330.463 300.423 323.285 292.472C322.021 291.049 320.731 289.694 319.401 288.342C276.658 245.544 205.118 253 169.446 301.856C162.69 311.149 155.823 320.38 148.73 329.42C140.591 339.848 131.714 353.349 120.387 356.982C82.825 369.14 44.2439 378.499 5.59898 386.94C-6.81895 389.629 -16.266 389.789 -22.8562 387.289L48.0969 545.478C50.6078 538.883 57.0149 531.946 67.2815 524.46C99.2852 501.213 131.932 478.623 165.992 458.657Z" stroke="#10375B" stroke-width="0.6" stroke-miterlimit="10"/>
<path d="M169.243 459.549C179.51 453.553 195.428 455.876 208.676 456.711C220.132 457.432 231.599 458.425 243.037 459.571C303.247 465.421 356.375 416.946 352.854 356.57C352.729 354.677 352.563 352.818 352.353 350.922C351.194 340.273 348.403 329.865 344.079 320.065C339.636 310.317 333.719 301.312 326.536 293.365C325.272 291.942 323.977 290.575 322.652 289.234C279.898 246.442 208.37 253.892 172.698 302.749C165.941 312.042 159.069 321.261 151.982 330.313C143.837 340.73 134.965 354.241 123.639 357.875C86.0765 370.033 47.4953 379.391 8.85044 387.832C-3.57269 390.51 -13.0146 390.681 -19.6047 388.182L51.3431 546.359C53.8592 539.776 60.2664 532.838 70.5329 525.353C102.526 502.082 135.183 479.516 169.243 459.549Z" stroke="#10375B" stroke-width="0.6" stroke-miterlimit="10"/>
<path d="M172.498 460.443C182.753 454.452 198.683 456.77 211.925 457.594C223.387 458.325 234.854 459.319 246.292 460.465C306.482 466.269 359.63 417.84 356.104 357.452C355.984 355.571 355.818 353.711 355.608 351.816C354.449 341.166 351.658 330.759 347.334 320.959C342.893 311.206 336.979 302.195 329.798 294.242C328.539 292.831 327.243 291.463 325.919 290.123C283.153 247.335 211.619 254.775 175.947 303.631C169.196 312.936 162.324 322.155 155.237 331.207C147.092 341.623 138.151 355.166 126.894 358.768C89.3315 370.926 50.7504 380.285 12.1055 388.726C-0.317639 391.404 -9.75953 391.575 -16.3497 389.076L54.593 547.242C57.1091 540.658 63.5162 533.721 73.7776 526.223C105.792 502.999 138.438 480.41 172.498 460.443Z" stroke="#10375B" stroke-width="0.6" stroke-miterlimit="10"/>
<path d="M175.747 461.323C186.002 455.332 201.937 457.661 215.179 458.485C226.641 459.217 238.108 460.211 249.546 461.356C309.756 467.207 362.884 418.732 359.358 358.343C359.238 356.463 359.067 354.591 358.862 352.707C357.702 342.058 354.912 331.651 350.588 321.85C346.143 312.099 340.225 303.09 333.04 295.139C331.781 293.727 330.486 292.36 329.161 291.02C286.407 248.227 214.873 255.666 179.201 304.523C172.45 313.827 165.578 323.047 158.491 332.098C150.346 342.515 141.457 356.02 130.148 359.66C92.5803 371.806 54.0043 381.177 15.3594 389.618C2.93626 392.295 -6.51722 392.472 -13.0958 389.967L57.8521 548.145C60.3566 541.566 66.7753 534.624 77.0367 527.126C109.04 503.879 141.692 481.301 175.747 461.323Z" stroke="#10375B" stroke-width="0.6" stroke-miterlimit="10"/>
<path d="M178.987 462.221C189.253 456.225 205.177 458.559 218.431 459.378C229.892 460.11 241.36 461.103 252.798 462.249C313.008 468.1 366.135 419.624 362.609 359.236C362.489 357.356 362.318 355.484 362.113 353.6C360.953 342.947 358.161 332.535 353.834 322.731C349.39 312.984 343.474 303.979 336.292 296.031C335.032 294.62 333.737 293.253 332.412 291.913C289.658 249.12 218.125 256.559 182.453 305.416C175.702 314.72 168.829 323.94 161.742 332.991C153.597 343.408 144.709 356.913 133.388 360.558C95.8317 372.699 57.239 382.063 18.6108 390.51C6.18772 393.188 -3.26575 393.365 -9.84431 390.86L61.1035 549.038C63.608 542.459 70.0268 535.516 80.2881 528.019C112.28 504.777 144.944 482.194 178.987 462.221Z" stroke="#10375B" stroke-width="0.6" stroke-miterlimit="10"/>
<path d="M182.241 463.113C192.508 457.117 208.49 459.425 221.685 460.27C233.147 461.002 244.614 461.995 256.047 463.13C316.257 468.98 369.39 420.516 365.864 360.128C365.744 358.248 365.573 356.376 365.362 354.48C364.204 343.831 361.414 333.423 357.089 323.623C352.645 313.876 346.728 304.871 339.546 296.923C338.282 295.501 336.992 294.145 335.662 292.793C292.913 250.012 221.379 257.451 185.707 306.308C178.956 315.612 172.084 324.832 164.991 333.872C156.852 344.3 147.905 357.831 136.637 361.438C99.0862 373.591 60.4935 382.955 21.8602 391.391C9.44227 394.08 -0.0164051 394.245 -6.58977 391.752L64.3581 549.93C66.8574 543.339 73.2813 536.408 83.5427 528.911C115.535 505.669 148.193 483.075 182.241 463.113Z" stroke="#10375B" stroke-width="0.6" stroke-miterlimit="10"/>
<path d="M185.493 464.007C195.76 458.011 211.678 460.334 224.937 461.164C236.399 461.896 247.866 462.889 259.299 464.024C319.509 469.874 372.641 421.41 369.116 361.022C368.991 359.13 368.825 357.27 368.614 355.374C367.456 344.725 364.666 334.318 360.34 324.517C355.898 314.77 349.981 305.764 342.798 297.817C341.522 296.4 340.244 295.039 338.914 293.687C296.165 250.906 224.631 258.345 188.959 307.202C182.208 316.506 175.336 325.726 168.243 334.766C160.104 345.194 151.215 358.699 139.889 362.332C102.338 374.485 63.7455 383.849 25.1121 392.285C12.6826 394.979 3.23554 395.139 -3.33782 392.646L67.61 550.824C70.1093 544.233 76.5165 537.296 86.7946 529.805C118.787 506.563 151.445 483.969 185.493 464.007Z" stroke="#10375B" stroke-width="0.6" stroke-miterlimit="10"/>
<path d="M188.748 464.9C199.014 458.903 214.933 461.226 228.18 462.062C239.636 462.782 251.115 463.77 262.554 464.916C322.763 470.766 375.891 422.291 372.37 361.915C372.245 360.023 372.079 358.163 371.869 356.267C370.704 345.619 367.914 335.212 363.595 325.41C359.147 315.665 353.231 306.661 346.053 298.71C344.776 297.292 343.498 295.931 342.168 294.579C299.419 251.798 227.828 259.263 192.214 308.094C185.463 317.398 178.59 326.618 171.486 335.663C163.347 346.091 154.47 359.592 143.143 363.225C105.593 375.378 66.9999 384.742 28.3665 393.177C15.937 395.872 6.48994 396.032 -0.0886206 393.527L70.8644 551.716C73.3637 545.126 79.7709 538.189 90.049 530.698C122.053 507.45 154.7 484.861 188.748 464.9Z" stroke="#10375B" stroke-width="0.6" stroke-miterlimit="10"/>
<path d="M192.002 465.791C202.268 459.794 218.187 462.117 231.434 462.953C242.89 463.673 254.369 464.661 265.807 465.807C326.017 471.657 379.145 423.182 375.624 362.806C375.499 360.914 375.333 359.054 375.123 357.158C373.958 346.51 371.168 336.103 366.849 326.301C362.401 316.556 356.484 307.552 349.306 299.601C348.03 298.183 346.752 296.822 345.422 295.47C302.668 252.678 231.14 260.129 195.468 308.985C188.711 318.278 181.827 327.503 174.74 336.554C166.595 346.971 157.703 360.436 146.397 364.116C108.847 376.269 70.2538 385.633 31.6205 394.068C19.1909 396.763 9.74386 396.923 3.1653 394.418L74.1132 552.595C76.6177 546.017 83.0248 539.08 93.3029 531.589C125.249 508.367 157.953 485.752 192.002 465.791Z" stroke="#10375B" stroke-width="0.6" stroke-miterlimit="10"/>
<path d="M195.254 466.686C205.52 460.689 221.439 463.012 234.686 463.848C246.142 464.568 257.621 465.556 269.048 466.707C329.27 472.553 382.397 424.077 378.871 363.689C378.751 361.809 378.585 359.949 378.375 358.053C377.21 347.405 374.419 336.999 370.101 327.196C365.654 317.451 359.737 308.446 352.559 300.496C351.283 299.078 349.999 297.706 348.674 296.366C305.93 253.596 234.392 261.024 198.703 309.874C191.964 319.173 185.079 328.398 177.994 337.421C169.849 347.838 160.977 361.35 149.651 364.983C112.088 377.141 73.5072 386.499 34.8739 394.935C22.4392 397.618 12.9973 397.789 6.40713 395.29L77.3654 553.491C79.8815 546.907 86.2886 539.969 96.5616 532.467C128.547 509.242 161.194 486.652 195.254 466.686Z" stroke="#10375B" stroke-width="0.6" stroke-miterlimit="10"/>
<path d="M198.503 467.565C208.769 461.569 224.693 463.904 237.935 464.727C249.397 465.459 260.876 466.448 272.302 467.599C332.512 473.449 385.651 424.969 382.125 364.581C381.994 362.705 381.834 360.829 381.618 358.95C380.452 348.302 377.662 337.895 373.344 328.093C368.894 318.344 362.976 309.336 355.796 301.381C354.537 299.97 353.242 298.602 351.929 297.257C309.174 254.464 237.65 261.955 201.957 310.765C195.253 320.049 188.276 329.315 181.2 338.362C173.055 348.778 164.184 362.29 152.857 365.923C115.336 378.049 76.7602 387.419 38.1153 395.86C25.6922 398.538 16.2503 398.709 9.66019 396.21L80.6081 554.387C83.1241 547.803 89.5313 540.866 99.7927 533.369C131.796 510.122 164.448 487.544 198.503 467.565Z" stroke="#10375B" stroke-width="0.6" stroke-miterlimit="10"/>
<path d="M201.756 468.457C212.022 462.461 227.946 464.796 241.188 465.619C252.649 466.351 264.117 467.345 275.555 468.491C335.765 474.341 388.846 425.887 385.401 365.462C385.281 363.582 385.11 361.71 384.905 359.826C383.739 349.174 380.947 338.763 376.626 328.957C372.177 319.214 366.261 310.209 359.084 302.257C357.824 300.846 356.529 299.479 355.204 298.139C312.369 255.382 240.882 262.801 205.21 311.657C198.459 320.962 191.586 330.181 184.499 339.233C176.355 349.649 167.478 363.15 156.156 366.794C118.589 378.941 80.0182 388.323 41.3681 396.752C28.945 399.43 19.5031 399.601 12.913 397.102L83.8608 555.279C86.3769 548.695 92.784 541.758 103.045 534.261C135.049 511.014 167.701 488.436 201.756 468.457Z" stroke="#10375B" stroke-width="0.6" stroke-miterlimit="10"/>
<path d="M205.008 469.351C215.274 463.355 231.198 465.689 244.44 466.513C255.901 467.245 267.369 468.239 278.807 469.384C339.012 475.223 392.144 426.76 388.619 366.371C388.499 364.491 388.327 362.619 388.117 360.724C385.947 339.255 376.891 319.064 362.301 303.167C361.002 301.759 359.762 300.423 358.398 299.058C315.667 256.255 244.134 263.694 208.488 312.609C201.737 321.913 194.864 331.133 187.772 340.173C179.633 350.601 170.756 364.101 159.429 367.734C121.867 379.892 83.2858 389.251 44.6461 397.704C32.223 400.381 22.7811 400.553 16.1909 398.053L87.1128 556.173C89.6393 549.612 96.0824 542.631 106.308 535.178C138.301 511.907 170.971 489.307 205.008 469.351Z" stroke="#10375B" stroke-width="0.6" stroke-miterlimit="10"/>
<path d="M208.262 470.244C218.517 464.253 234.453 466.582 247.695 467.406C259.156 468.138 270.623 469.131 282.056 470.266C342.266 476.116 395.399 427.652 391.873 367.264C391.748 365.372 391.582 363.512 391.372 361.616C389.202 340.148 380.146 319.957 365.555 304.059C364.291 302.637 363.001 301.281 361.671 299.929C318.922 257.148 247.373 264.552 211.763 313.423C205.012 322.727 198.139 331.947 191.047 340.987C182.908 351.415 174.019 364.92 162.704 368.548C125.061 380.743 86.5144 390.086 47.8851 398.562C35.4672 401.251 26.0201 401.411 19.4352 398.923L90.3674 557.066C92.8783 550.47 99.2854 543.533 109.552 536.047C141.556 512.8 174.168 490.226 208.262 470.244Z" stroke="#10375B" stroke-width="0.6" stroke-miterlimit="10"/>
<path d="M211.527 471.132C221.782 465.14 237.712 467.458 250.96 468.294C262.416 469.014 273.883 470.008 285.322 471.153C345.532 477.004 398.664 428.54 395.138 368.152C395.013 366.26 394.847 364.4 394.637 362.504C392.467 341.036 383.411 320.845 368.821 304.947C367.556 303.524 366.266 302.169 364.936 300.817C322.175 258.041 250.642 265.48 214.959 314.342C208.208 323.646 201.335 332.866 194.243 341.906C186.103 352.334 177.157 365.865 165.9 369.467C128.337 381.625 89.7563 390.984 51.1114 399.425C38.6935 402.114 29.2348 402.279 22.6563 399.775L93.6093 557.964C96.1086 551.374 102.527 544.431 112.794 536.946C144.825 513.728 177.456 491.104 211.527 471.132Z" stroke="#10375B" stroke-width="0.6" stroke-miterlimit="10"/>
<path d="M214.722 472.051C224.989 466.054 240.965 468.351 254.166 469.208C265.622 469.928 277.09 470.922 288.528 472.067C348.778 477.914 401.9 429.427 398.38 369.05C398.255 367.158 398.088 365.298 397.878 363.403C395.708 341.934 386.652 321.743 372.062 305.846C370.797 304.423 369.507 303.067 368.178 301.715C325.423 258.922 253.895 266.373 218.213 315.207C211.456 324.499 204.584 333.719 197.497 342.771C189.357 353.199 180.479 366.727 169.118 370.376C131.567 382.529 92.9745 391.893 54.3412 400.329C41.9233 403.018 32.4646 403.183 25.8861 400.678L96.8547 558.902C99.354 552.312 105.773 545.369 116.039 537.884C148.051 514.591 180.735 492.055 214.722 472.051Z" stroke="#10375B" stroke-width="0.6" stroke-miterlimit="10"/>
<path d="M218.01 472.926C228.276 466.93 244.195 469.253 257.454 470.083C268.91 470.803 280.377 471.797 291.816 472.943C352.026 478.793 405.168 430.352 401.632 369.941C401.507 368.049 401.341 366.189 401.131 364.293C398.961 342.825 389.905 322.634 375.315 306.736C374.05 305.314 372.755 303.946 371.43 302.606C328.676 259.813 257.148 267.264 221.476 316.121C214.72 325.413 207.847 334.633 200.76 343.685C192.615 354.101 183.674 367.644 172.405 371.251C134.855 383.404 96.2621 392.768 57.6288 401.204C45.2057 403.881 35.7522 404.058 29.1737 401.553L100.122 559.731C102.626 553.152 109.045 546.21 119.311 538.724C151.303 515.482 183.962 492.888 218.01 472.926Z" stroke="#10375B" stroke-width="0.6" stroke-miterlimit="10"/>
<path d="M221.283 473.865C231.55 467.869 247.531 470.178 260.727 471.022C272.188 471.754 283.656 472.748 295.094 473.893C355.304 479.744 408.431 431.269 404.906 370.881C404.786 369 404.614 367.128 404.409 365.244C402.237 343.772 393.179 323.578 378.588 307.676C377.317 306.27 376.034 304.897 374.709 303.557C331.928 260.706 260.395 268.145 224.723 317.002C217.972 326.306 211.1 335.526 204.012 344.577C195.868 354.994 186.984 368.511 175.658 372.144C138.102 384.286 99.5145 393.661 60.8812 402.097C48.4465 404.78 39.0046 404.951 32.426 402.446L103.374 560.624C105.878 554.045 112.286 547.108 122.558 539.606C154.535 516.329 187.214 493.781 221.283 473.865Z" stroke="#10375B" stroke-width="0.6" stroke-miterlimit="10"/>
<path d="M16.0992 246.443L16.0999 246.439C21.2263 218.26 26.2282 190.062 31.2304 161.861C38.9893 118.12 46.749 74.3742 54.9757 30.6886C56.1127 27.2741 57.9126 24.1171 60.2726 21.3991C62.5606 18.764 65.331 16.5923 68.4331 15H352.047C355.157 16.5886 357.935 18.759 360.23 21.395C362.597 24.113 364.403 27.2717 365.544 30.6893C373.564 73.2747 381.124 115.912 388.684 158.549C393.879 187.851 399.075 217.152 404.419 246.436C405.402 251.89 405.128 256.135 403.668 259.836C402.202 263.554 399.454 266.942 395.097 270.528C338.048 317.207 281.461 364.417 225.334 412.158L225.268 412.215L225.206 412.277C221.251 416.287 216.01 418.774 210.407 419.303C204.803 418.774 199.562 416.287 195.607 412.277L195.543 412.213L195.474 412.154C139.097 364.525 82.4123 317.316 25.4204 270.526L25.419 270.525C21.0415 266.938 18.2858 263.551 16.8206 259.836C15.3618 256.138 15.0967 251.896 16.0992 246.443Z" stroke="url(#paint2_linear_213_2017)" stroke-width="4"/>
</g>
<defs>
<linearGradient id="paint0_linear_213_2017" x1="210.25" y1="13" x2="210.25" y2="421.311" gradientUnits="userSpaceOnUse">
<stop stop-color="#10375B"/>
<stop offset="1" stop-color="#40F8FF"/>
</linearGradient>
<linearGradient id="paint1_linear_213_2017" x1="210.25" y1="13" x2="210.25" y2="421.311" gradientUnits="userSpaceOnUse">
<stop stop-color="#10375B"/>
<stop offset="1" stop-color="#40F8FF"/>
</linearGradient>
<linearGradient id="paint2_linear_213_2017" x1="210.25" y1="13" x2="210.25" y2="421.311" gradientUnits="userSpaceOnUse">
<stop stop-color="#10375B"/>
<stop offset="1" stop-color="#40F8FF"/>
</linearGradient>
</defs>
</svg>
